<?xml version="1.0" encoding="UTF-8" standalone="no"?>
<!-- Created with Inkscape (http://www.inkscape.org/) -->

<svg
   version="1.1"
   id="svg856"
   xml:space="preserve"
   width="1075"
   height="175"
   viewBox="0 0 1075 175"
   sodipodi:docname="gloo-platform-docs-horizontal.svg"
   inkscape:version="1.1 (c4e8f9e, 2021-05-24)"
   xmlns:inkscape="http://www.inkscape.org/namespaces/inkscape"
   xmlns:sodipodi="http://sodipodi.sourceforge.net/DTD/sodipodi-0.dtd"
   xmlns="http://www.w3.org/2000/svg"
   xmlns:svg="http://www.w3.org/2000/svg"><defs
     id="defs860"><rect
       x="97.859322"
       y="261.77368"
       width="1140.0612"
       height="239.75534"
       id="rect17518" /><clipPath
       clipPathUnits="userSpaceOnUse"
       id="clipPath870"><path
         d="M 0,1000 H 1000 V 0 H 0 Z"
         id="path868" /></clipPath><clipPath
       clipPathUnits="userSpaceOnUse"
       id="clipPath926"><path
         d="m 340.982,334.92 h 333.55 v -10.287 h -333.55 z"
         id="path924" /></clipPath><clipPath
       clipPathUnits="userSpaceOnUse"
       id="clipPath1102"><path
         d="m 208.182,657.107 h 199.811 v -6.162 H 208.182 Z"
         id="path1100" /></clipPath></defs><sodipodi:namedview
     id="namedview858"
     pagecolor="#ffffff"
     bordercolor="#666666"
     borderopacity="1.0"
     inkscape:pageshadow="2"
     inkscape:pageopacity="0.0"
     inkscape:pagecheckerboard="0"
     showgrid="false"
     inkscape:zoom="0.40875002"
     inkscape:cx="466.05502"
     inkscape:cy="858.71554"
     inkscape:window-width="1792"
     inkscape:window-height="982"
     inkscape:window-x="0"
     inkscape:window-y="25"
     inkscape:window-maximized="1"
     inkscape:current-layer="g862" /><g
     id="g862"
     inkscape:groupmode="layer"
     inkscape:label="Gloo Platform new2"
     transform="matrix(1.3333333,0,0,-1.3333333,0,1333.3333)"><g
       id="g18559"
       inkscape:export-filename="/Users/artberger/Downloads/gloo-platform-docs.png"
       inkscape:export-xdpi="54.301228"
       inkscape:export-ydpi="54.301228"
       transform="translate(-89.908253,214.6789)"><g
         id="g1048"
         transform="translate(349.70857,702.30219)"><path
           d="m 0,0 h -11.164 c -1.18,0 -2.167,-0.386 -2.961,-1.157 -0.794,-0.772 -1.191,-1.747 -1.191,-2.927 0,-1.181 0.397,-2.156 1.191,-2.927 0.794,-0.772 1.781,-1.157 2.961,-1.157 h 6.399 v -8.849 c -1.089,-0.364 -2.36,-0.658 -3.812,-0.885 -1.453,-0.228 -2.814,-0.34 -4.084,-0.34 -2.905,0 -5.582,0.737 -8.032,2.212 -2.451,1.474 -4.39,3.46 -5.82,5.956 -1.429,2.495 -2.144,5.218 -2.144,8.168 0,2.949 0.715,5.672 2.144,8.168 1.43,2.496 3.369,4.481 5.82,5.956 2.45,1.474 5.127,2.213 8.032,2.213 2.631,0 5.173,-0.522 7.624,-1.566 0.816,-0.364 1.565,-0.544 2.246,-0.544 1.089,0 2.008,0.419 2.757,1.259 0.748,0.839 1.123,1.826 1.123,2.961 0,0.681 -0.17,1.315 -0.511,1.906 -0.34,0.589 -0.85,1.066 -1.531,1.429 -3.313,1.815 -7.215,2.723 -11.708,2.723 -4.493,0 -8.645,-1.101 -12.457,-3.301 -3.812,-2.202 -6.83,-5.173 -9.053,-8.917 -2.224,-3.744 -3.335,-7.84 -3.335,-12.287 0,-4.448 1.111,-8.543 3.335,-12.286 2.223,-3.744 5.241,-6.717 9.053,-8.917 3.812,-2.202 7.964,-3.302 12.457,-3.302 5.309,0 10.187,1.384 14.635,4.153 1.406,0.861 2.11,2.086 2.11,3.675 v 14.431 c 0,1.179 -0.386,2.166 -1.157,2.961 C 2.155,-0.397 1.179,0 0,0"
           style="fill:#003c6a;fill-opacity:1;fill-rule:evenodd;stroke:none"
           id="path1050" /></g><g
         id="g1052"
         transform="translate(363.66707,726.94329)"><path
           d="m 0,0 c -1.181,0 -2.167,-0.398 -2.961,-1.191 -0.794,-0.795 -1.191,-1.782 -1.191,-2.961 v -42.067 c 0,-1.18 0.385,-2.167 1.157,-2.961 0.771,-0.795 1.724,-1.191 2.859,-1.191 1.179,0 2.166,0.396 2.961,1.191 0.793,0.794 1.191,1.781 1.191,2.961 v 42.067 c 0,1.179 -0.386,2.166 -1.157,2.961 C 2.087,-0.398 1.134,0 0,0"
           style="fill:#003c6a;fill-opacity:1;fill-rule:evenodd;stroke:none"
           id="path1054" /></g><g
         id="g1056"
         transform="translate(399.51027,688.82459)"><path
           d="m 0,0 c -0.932,-1.725 -2.179,-3.063 -3.744,-4.016 -1.566,-0.953 -3.301,-1.429 -5.208,-1.429 -1.905,0 -3.641,0.476 -5.207,1.429 -1.565,0.953 -2.814,2.291 -3.743,4.016 -0.931,1.724 -1.396,3.698 -1.396,5.922 0,2.223 0.465,4.208 1.396,5.956 0.929,1.747 2.178,3.097 3.743,4.05 1.566,0.953 3.302,1.429 5.207,1.429 1.907,0 3.642,-0.476 5.208,-1.429 C -2.179,14.975 -0.932,13.625 0,11.878 0.929,10.13 1.396,8.145 1.396,5.922 1.396,3.698 0.929,1.724 0,0 m 0.408,22.429 c -2.837,1.61 -5.956,2.416 -9.36,2.416 -3.448,0 -6.58,-0.806 -9.393,-2.416 -2.814,-1.612 -5.037,-3.858 -6.671,-6.739 -1.633,-2.882 -2.45,-6.138 -2.45,-9.768 0,-3.631 0.817,-6.887 2.45,-9.768 1.634,-2.882 3.857,-5.117 6.671,-6.705 2.813,-1.589 5.945,-2.382 9.393,-2.382 3.404,0 6.523,0.793 9.36,2.382 2.835,1.588 5.071,3.823 6.705,6.705 1.633,2.881 2.45,6.137 2.45,9.768 0,3.63 -0.817,6.886 -2.45,9.768 -1.634,2.881 -3.87,5.127 -6.705,6.739"
           style="fill:#003c6a;fill-opacity:1;fill-rule:evenodd;stroke:none"
           id="path1058" /></g><g
         id="g1060"
         transform="translate(438.85897,688.82459)"><path
           d="m 0,0 c -0.931,-1.725 -2.179,-3.063 -3.744,-4.016 -1.566,-0.953 -3.302,-1.429 -5.207,-1.429 -1.906,0 -3.642,0.476 -5.208,1.429 -1.566,0.953 -2.814,2.291 -3.743,4.016 -0.931,1.724 -1.396,3.698 -1.396,5.922 0,2.223 0.465,4.208 1.396,5.956 0.929,1.747 2.177,3.097 3.743,4.05 1.566,0.953 3.302,1.429 5.208,1.429 1.905,0 3.641,-0.476 5.207,-1.429 C -2.179,14.975 -0.931,13.625 0,11.878 0.929,10.13 1.396,8.145 1.396,5.922 1.396,3.698 0.929,1.724 0,0 m 0.408,22.429 c -2.837,1.61 -5.956,2.416 -9.359,2.416 -3.449,0 -6.581,-0.806 -9.394,-2.416 -0.057,-0.033 -0.111,-0.071 -0.169,-0.104 l -4.646,4.646 c 0.733,1.377 0.966,3.024 0.53,4.649 -0.912,3.405 -4.412,5.426 -7.817,4.514 -3.406,-0.913 -5.427,-4.413 -4.514,-7.818 0.912,-3.405 4.412,-5.426 7.817,-4.514 0.478,0.128 0.928,0.307 1.347,0.529 l 4.251,-4.251 c -1.355,-1.249 -2.516,-2.708 -3.47,-4.39 -1.633,-2.882 -2.45,-6.138 -2.45,-9.768 0,-3.631 0.817,-6.887 2.45,-9.768 1.634,-2.882 3.857,-5.117 6.671,-6.705 2.813,-1.589 5.945,-2.382 9.394,-2.382 3.403,0 6.522,0.793 9.359,2.382 2.835,1.588 5.071,3.823 6.705,6.705 1.633,2.881 2.45,6.137 2.45,9.768 0,3.63 -0.817,6.886 -2.45,9.768 -1.634,2.881 -3.87,5.127 -6.705,6.739"
           style="fill:#003c6a;fill-opacity:1;fill-rule:evenodd;stroke:none"
           id="path1062" /></g><g
         id="g1096"
         transform="translate(-100.91743,20.183486)"><g
           id="g1098" /><g
           id="g1110"><g
             clip-path="url(#clipPath1102)"
             opacity="0.240005"
             id="g1108"><g
               transform="translate(308.0874,657.1069)"
               id="g1106"><path
                 d="m 0,0 c 55.176,0 99.906,-1.379 99.906,-3.081 0,-1.701 -44.73,-3.081 -99.906,-3.081 -55.177,0 -99.906,1.38 -99.906,3.081 C -99.906,-1.379 -55.177,0 0,0"
                 style="fill:#000000;fill-opacity:1;fill-rule:evenodd;stroke:none"
                 id="path1104" /></g></g></g></g><g
         id="g1112"
         transform="translate(297.06797,705.91489)"><path
           d="m 0,0 h -30.786 c -1.06,0 -1.927,-0.867 -1.927,-1.927 v -27.416 c 0,-1.06 0.867,-1.927 1.927,-1.927 H 0 c 1.06,0 1.927,0.867 1.927,1.927 V -1.927 C 1.927,-0.867 1.06,0 0,0"
           style="fill:#c32972;fill-opacity:1;fill-rule:evenodd;stroke:none"
           id="path1114" /></g><g
         id="g1116"
         transform="translate(259.42977,705.91489)"><path
           d="m 0,0 h -31.7 c -1.06,0 -1.927,-0.867 -1.927,-1.927 v -27.416 c 0,-1.06 0.867,-1.927 1.927,-1.927 H 0 c 1.06,0 1.927,0.867 1.927,1.927 V -1.927 C 1.927,-0.867 1.06,0 0,0"
           style="fill:#96c83f;fill-opacity:1;fill-rule:evenodd;stroke:none"
           id="path1118" /></g><g
         id="g1120"
         transform="translate(220.66267,705.91489)"><path
           d="m 0,0 h -31.499 c -1.06,0 -1.927,-0.867 -1.927,-1.927 v -27.416 c 0,-1.06 0.867,-1.927 1.927,-1.927 H 0 c 1.06,0 1.927,0.867 1.927,1.927 V -1.927 C 1.927,-0.867 1.06,0 0,0"
           style="fill:#bc4797;fill-opacity:1;fill-rule:evenodd;stroke:none"
           id="path1122" /></g><g
         id="g1124"
         transform="translate(276.01467,737.18549)"><path
           d="m 0,0 h -30.722 c -1.06,0 -1.927,-0.867 -1.927,-1.927 v -27.416 c 0,-1.06 0.867,-1.928 1.927,-1.928 H 0 c 1.06,0 1.927,0.868 1.927,1.928 V -1.927 C 1.927,-0.867 1.06,0 0,0"
           style="fill:#3f609d;fill-opacity:1;fill-rule:evenodd;stroke:none"
           id="path1126" /></g><g
         id="g1128"
         transform="translate(220.78277,705.91489)"><path
           d="m 0,0 h -23.767 c -0.994,0 -1.807,-0.812 -1.807,-1.807 v -27.656 c 0,-0.994 0.813,-1.807 1.807,-1.807 H 0 c 0.994,0 1.807,0.813 1.807,1.807 V -1.807 C 1.807,-0.812 0.994,0 0,0"
           style="fill:#e251b5;fill-opacity:1;fill-rule:evenodd;stroke:none"
           id="path1130" /></g><g
         id="g1132"
         transform="translate(238.14797,705.91489)"><path
           d="m 0,0 h -10.89 c -0.8,0 -1.456,-0.655 -1.456,-1.456 v -28.358 c 0,-0.801 0.656,-1.456 1.456,-1.456 H 0 c 0.801,0 1.456,0.655 1.456,1.456 V -1.456 C 1.456,-0.655 0.801,0 0,0"
           style="fill:#87b439;fill-opacity:1;fill-rule:evenodd;stroke:none"
           id="path1134" /></g><g
         id="g1136"
         transform="translate(275.62167,737.18549)"><path
           d="m 0,0 h -23.224 c -1.276,0 -2.32,-1.044 -2.32,-2.32 v -26.63 c 0,-1.276 1.044,-2.321 2.32,-2.321 H 0 c 1.276,0 2.32,1.045 2.32,2.321 V -2.32 C 2.32,-1.044 1.276,0 0,0"
           style="fill:#466baf;fill-opacity:1;fill-rule:evenodd;stroke:none"
           id="path1138" /></g><g
         id="g1140"
         transform="translate(238.65337,737.18549)"><path
           d="m 0,0 h -29.571 c -1.06,0 -1.927,-0.867 -1.927,-1.927 v -27.416 c 0,-1.06 0.867,-1.928 1.927,-1.928 H 0 c 1.06,0 1.927,0.868 1.927,1.928 V -1.927 C 1.927,-0.867 1.06,0 0,0"
           style="fill:#8c72b1;fill-opacity:1;fill-rule:evenodd;stroke:none"
           id="path1142" /></g><g
         id="g1144"
         transform="translate(228.25787,737.18549)"><path
           d="m 0,0 h -19.716 c -0.763,0 -1.386,-0.624 -1.386,-1.386 v -28.498 c 0,-0.762 0.623,-1.387 1.386,-1.387 H 0 c 0.762,0 1.386,0.625 1.386,1.387 V -1.386 C 1.386,-0.624 0.762,0 0,0"
           style="fill:#8062a8;fill-opacity:1;fill-rule:evenodd;stroke:none"
           id="path1146" /></g><g
         id="g1148"
         transform="translate(297.19337,705.91489)"><path
           d="m 0,0 h -21.905 c -0.991,0 -1.802,-0.81 -1.802,-1.801 v -27.667 c 0,-0.991 0.811,-1.802 1.802,-1.802 H 0 c 0.991,0 1.802,0.811 1.802,1.802 V -1.801 C 1.802,-0.81 0.991,0 0,0"
           style="fill:#df0296;fill-opacity:1;fill-rule:evenodd;stroke:none"
           id="path1150" /></g><g
         id="g1152"
         transform="translate(130.52247,756.61029)"><path
           d="m 0,0 c 3.66,-1.522 6.044,-3.377 9,-6.456 l -4.068,-3.09 c -1.081,1.126 -8.9,0.712 -7.741,1.616 2.314,1.805 0.862,3.383 -1.23,4.252 -3.946,2.305 -5.172,-8.174 -15.196,-5.155 -6.703,2.018 -9.69,8.276 -7.64,14.154 2.05,5.878 9.115,8.908 15.782,6.769 3.999,-1.284 5.944,-4.468 6.236,-7.995 C -4.557,0.482 -4.198,1.746 0,0"
           style="fill:#54acd5;fill-opacity:1;fill-rule:evenodd;stroke:none"
           id="path1154" /></g><g
         id="g1156"
         transform="translate(126.01377,727.77579)"><path
           d="m 0,0 c 2.258,-2.869 -7.395,-14.161 -12.847,-22.543 -5.451,-8.383 -10.403,-7.452 -13.13,-5.477 -2.728,1.976 -3.408,8.258 2.047,14.581 C -18.474,-7.117 -2.257,2.87 0,0"
           style="fill:#54acd5;fill-opacity:1;fill-rule:evenodd;stroke:none"
           id="path1158" /></g><g
         id="g1160"
         transform="translate(188.57477,720.28509)"><path
           d="M 0,0 C -0.992,3.513 12.237,10.271 20.474,15.94 28.71,21.61 32.932,18.861 34.7,15.995 36.468,13.128 34.701,7.061 27.247,3.297 19.792,-0.467 0.993,-3.514 0,0"
           style="fill:#54acd5;fill-opacity:1;fill-rule:evenodd;stroke:none"
           id="path1162" /></g><g
         id="g1164"
         transform="translate(139.73787,673.48179)"><path
           d="M 0,0 C 9.396,0 11.184,6.127 17.396,6.177 23.608,6.226 26.306,0 35.37,0 c 14.653,0 24.192,31.463 24.192,48.685 0,22.064 -18.709,36.913 -41.787,36.913 -23.078,0 -41.787,-14.849 -41.787,-36.913 C -24.012,22.574 -12.862,0 0,0"
           style="fill:#54acd5;fill-opacity:1;fill-rule:evenodd;stroke:none"
           id="path1166" /></g><g
         id="g1168"
         transform="translate(159.31107,758.02969)"><path
           d="m 0,0 c 20.58,0 37.264,-16.684 37.264,-37.264 0,-37.487 -74.295,-39.388 -74.295,5.41 C -37.031,-11.274 -20.581,0 0,0"
           style="fill:#5bbae0;fill-opacity:1;fill-rule:evenodd;stroke:none"
           id="path1170" /></g><g
         id="g1172"
         transform="translate(203.80427,730.37489)"><path
           d="M 0,0 C -0.357,1.475 3.204,2.352 6.977,5.325 10.75,8.297 13.239,8.387 13.596,6.912 13.954,5.437 12.037,3.191 8.507,1.508 4.977,-0.174 0.357,-1.474 0,0"
           style="fill:#ffffff;fill-opacity:1;fill-rule:evenodd;stroke:none"
           id="path1174" /></g><g
         id="g1176"
         transform="translate(113.88827,719.41839)"><path
           d="m 0,0 c 1.397,-0.664 -3.148,-1.438 -7.586,-9.1 -1.584,-2.735 -1.964,-4.245 -3.354,-3.898 -0.597,0.149 -1.964,0.974 0.315,4.762 C -8.347,-4.449 -1.546,0.734 0,0 m -10.788,-14.055 c 0.745,-0.429 1.038,-1.533 0.658,-2.466 -0.381,-0.932 -1.293,-1.339 -2.037,-0.91 -0.744,0.43 -1.038,1.534 -0.657,2.466 0.381,0.932 1.293,1.34 2.036,0.91"
           style="fill:#ffffff;fill-opacity:1;fill-rule:evenodd;stroke:none"
           id="path1178" /></g><g
         id="g1180"
         transform="translate(157.53957,716.15179)"><path
           d="m 0,0 c 6.319,0 8.645,2.221 11.388,-0.229 2.743,-2.45 -2.459,-10.537 -11.443,-10.537 -8.985,0 -14.029,8.003 -11.443,10.537 C -8.912,2.305 -6.32,0 0,0"
           style="fill:#003c6a;fill-opacity:1;fill-rule:evenodd;stroke:none"
           id="path1182" /></g><g
         id="g1184"
         transform="translate(163.53667,708.13659)"><path
           d="m 0,0 c -1.625,-1.002 -3.684,-1.691 -6.067,-1.691 -2.467,0 -4.573,0.73 -6.208,1.782 0.138,1.917 3.567,2.949 6.135,1.68 C -3.445,3.04 -0.057,1.959 0,0"
           style="fill:#54acd5;fill-opacity:1;fill-rule:evenodd;stroke:none"
           id="path1186" /></g><g
         id="g1188"
         transform="translate(157.53717,715.42319)"><path
           d="M 0,0 C 4.138,0 6.416,0.894 8.288,0.891 8.289,0.859 8.29,0.827 8.29,0.794 8.29,-0.649 7.207,-1.82 5.87,-1.82 c -0.433,0 -0.838,0.123 -1.189,0.338 -0.442,-0.859 -1.357,-1.449 -2.415,-1.449 -0.934,0 -1.757,0.461 -2.241,1.16 -0.484,-0.699 -1.307,-1.16 -2.241,-1.16 -1.077,0 -2.006,0.612 -2.438,1.496 -0.368,-0.244 -0.802,-0.385 -1.265,-0.385 -1.336,0 -2.419,1.171 -2.419,2.614 0,0.042 10e-4,0.084 0.003,0.126 C -6.464,0.88 -4.138,0 0,0"
           style="fill:#ffffff;fill-opacity:1;fill-rule:evenodd;stroke:none"
           id="path1190" /></g><g
         id="g1192"
         transform="translate(158.12747,746.79479)"><path
           d="m 0,0 c -7.28,-1.492 -9.543,5.531 -0.337,7.753 11.532,2.784 27.904,-4.733 32.816,-15.084 1.308,-2.756 -0.738,-3.79 -2.97,-1.027 C 23.327,-0.71 12.214,2.503 0,0 m 33.002,-11.438 c 0.815,0.139 1.714,-0.53 2.008,-1.492 0.294,-0.962 -0.129,-1.854 -0.944,-1.993 -0.814,-0.138 -1.712,0.529 -2.007,1.492 -0.293,0.962 0.129,1.854 0.943,1.993"
           style="fill:#eef7f8;fill-opacity:1;fill-rule:evenodd;stroke:none"
           id="path1194" /></g><g
         id="g1196"
         transform="translate(181.82917,729.97059)"><path
           d="m 0,0 c 3.658,0.141 6.737,-2.711 6.877,-6.369 0.141,-3.657 -2.71,-6.736 -6.369,-6.877 -3.657,-0.14 -6.736,2.711 -6.877,6.369 C -6.509,-3.219 -3.658,-0.14 0,0"
           style="fill:#003c6a;fill-opacity:1;fill-rule:evenodd;stroke:none"
           id="path1198" /></g><g
         id="g1200"
         transform="translate(184.91267,727.96379)"><path
           d="m 0,0 c 1.02,0.039 1.879,-0.756 1.918,-1.776 0.04,-1.021 -0.756,-1.88 -1.776,-1.919 -1.02,-0.039 -1.879,0.756 -1.918,1.777 C -1.816,-0.898 -1.021,-0.039 0,0"
           style="fill:#eef7f8;fill-opacity:1;fill-rule:evenodd;stroke:none"
           id="path1202" /></g><g
         id="g1204"
         transform="translate(137.81597,728.28159)"><path
           d="m 0,0 c 3.658,0.141 6.737,-2.711 6.877,-6.369 0.14,-3.657 -2.711,-6.736 -6.369,-6.877 -3.658,-0.14 -6.737,2.711 -6.877,6.369 C -6.509,-3.219 -3.658,-0.14 0,0"
           style="fill:#003c6a;fill-opacity:1;fill-rule:evenodd;stroke:none"
           id="path1206" /></g><g
         id="g1208"
         transform="translate(140.89897,726.27429)"><path
           d="m 0,0 c 1.021,0.039 1.879,-0.756 1.918,-1.776 0.04,-1.02 -0.756,-1.879 -1.776,-1.918 -1.02,-0.04 -1.879,0.756 -1.918,1.776 C -1.815,-0.898 -1.02,-0.039 0,0"
           style="fill:#eef7f8;fill-opacity:1;fill-rule:evenodd;stroke:none"
           id="path1210" /></g><g
         id="g1212"
         transform="translate(117.38187,767.44279)"><path
           d="M 0,0 C 2.507,0 4.539,-2.032 4.539,-4.539 4.539,-9.105 -4.51,-9.336 -4.51,-3.88 -4.51,-1.374 -2.506,0 0,0"
           style="fill:#ffffff;fill-opacity:1;fill-rule:evenodd;stroke:none"
           id="path1214" /></g><g
         id="g1216"
         transform="translate(205.46147,770.19669)"><path
           d="m 0,0 h 35.604 c 1.223,0 2.223,-1 2.223,-2.223 v -31.62 c 0,-1.223 -1,-2.223 -2.223,-2.223 H 0 c -1.223,0 -2.223,1 -2.223,2.223 v 31.62 C -2.223,-1 -1.223,0 0,0"
           style="fill:#fbc65f;fill-opacity:1;fill-rule:evenodd;stroke:none"
           id="path1218" /></g><g
         id="g1220"
         transform="translate(215.24277,770.19669)"><path
           d="m 0,0 h 25.646 c 1.32,0 2.399,-1.08 2.399,-2.399 v -31.268 c 0,-1.32 -1.079,-2.399 -2.399,-2.399 H 0 c -1.32,0 -2.399,1.079 -2.399,2.399 V -2.399 C -2.399,-1.08 -1.32,0 0,0"
           style="fill:#fbdd75;fill-opacity:1;fill-rule:evenodd;stroke:none"
           id="path1222" /></g></g><text
       xml:space="preserve"
       style="font-style:normal;font-weight:normal;font-size:72px;line-height:1.25;font-family:sans-serif;letter-spacing:-2.625px;fill:#003c6a;fill-opacity:1;stroke:none;stroke-width:0.75"
       x="366.05508"
       y="-891.29053"
       id="text1592"
       transform="scale(1,-1)"
       inkscape:export-filename="/Users/artberger/Downloads/gloo-platform-docs.png"
       inkscape:export-xdpi="54.301228"
       inkscape:export-ydpi="54.301228"><tspan
         sodipodi:role="line"
         id="tspan1590"
         style="font-style:normal;font-variant:normal;font-weight:normal;font-stretch:normal;font-size:72px;font-family:Quicksand;-inkscape-font-specification:Quicksand;fill:#003c6a;fill-opacity:1;stroke-width:0.75"
         x="366.05508"
         y="-891.29053">Platform Docs</tspan></text><text
       xml:space="preserve"
       transform="matrix(0.75000002,0,0,-0.75000002,0,1000)"
       id="text17516"
       style="font-style:normal;font-weight:normal;font-size:40px;line-height:1.25;font-family:sans-serif;white-space:pre;shape-inside:url(#rect17518);fill:#000000;fill-opacity:1;stroke:none"
       inkscape:export-filename="/Users/artberger/Downloads/gloo-platform-docs.png"
       inkscape:export-xdpi="22.625511"
       inkscape:export-ydpi="22.625511" /></g></svg>
