<?xml version="1.0" encoding="UTF-8" standalone="no"?>
<!-- Created with Inkscape (http://www.inkscape.org/) -->

<svg
   version="1.1"
   id="svg856"
   xml:space="preserve"
   width="1075"
   height="175"
   viewBox="0 0 1075 175"
   sodipodi:docname="gloo-platform-docs-horizontal.svg"
   inkscape:version="1.1 (c4e8f9e, 2021-05-24)"
   xmlns:inkscape="http://www.inkscape.org/namespaces/inkscape"
   xmlns:sodipodi="http://sodipodi.sourceforge.net/DTD/sodipodi-0.dtd"
   xmlns="http://www.w3.org/2000/svg"
   xmlns:svg="http://www.w3.org/2000/svg"><defs
     id="defs860"><rect
       x="97.859322"
       y="261.77368"
       width="1140.0612"
       height="239.75534"
       id="rect17518" /><clipPath
       clipPathUnits="userSpaceOnUse"
       id="clipPath870"><path
         d="M 0,1000 H 1000 V 0 H 0 Z"
         id="path868" /></clipPath><clipPath
       clipPathUnits="userSpaceOnUse"
       id="clipPath926"><path
         d="m 340.982,334.92 h 333.55 v -10.287 h -333.55 z"
         id="path924" /></clipPath><clipPath
       clipPathUnits="userSpaceOnUse"
       id="clipPath1102"><path
         d="m 208.182,657.107 h 199.811 v -6.162 H 208.182 Z"
         id="path1100" /></clipPath><clipPath
       clipPathUnits="userSpaceOnUse"
       id="clipPath1074"><path
         d="m 203.515,288.475 h 193.427 v -5.966 H 203.515 Z"
         id="path1072" /></clipPath></defs><sodipodi:namedview
     id="namedview858"
     pagecolor="#ffffff"
     bordercolor="#666666"
     borderopacity="1.0"
     inkscape:pageshadow="2"
     inkscape:pageopacity="0.0"
     inkscape:pagecheckerboard="0"
     showgrid="false"
     inkscape:zoom="0.40875002"
     inkscape:cx="647.09477"
     inkscape:cy="736.3914"
     inkscape:window-width="1366"
     inkscape:window-height="982"
     inkscape:window-x="250"
     inkscape:window-y="325"
     inkscape:window-maximized="0"
     inkscape:current-layer="g862" /><g
     id="g862"
     inkscape:groupmode="layer"
     inkscape:label="Gloo Platform new2"
     transform="matrix(1.3333333,0,0,-1.3333333,0,1333.3333)"><g
       id="g1048"
       transform="translate(259.80032,916.98109)"><path
         d="m 0,0 h -11.164 c -1.18,0 -2.167,-0.386 -2.961,-1.157 -0.794,-0.772 -1.191,-1.747 -1.191,-2.927 0,-1.181 0.397,-2.156 1.191,-2.927 0.794,-0.772 1.781,-1.157 2.961,-1.157 h 6.399 v -8.849 c -1.089,-0.364 -2.36,-0.658 -3.812,-0.885 -1.453,-0.228 -2.814,-0.34 -4.084,-0.34 -2.905,0 -5.582,0.737 -8.032,2.212 -2.451,1.474 -4.39,3.46 -5.82,5.956 -1.429,2.495 -2.144,5.218 -2.144,8.168 0,2.949 0.715,5.672 2.144,8.168 1.43,2.496 3.369,4.481 5.82,5.956 2.45,1.474 5.127,2.213 8.032,2.213 2.631,0 5.173,-0.522 7.624,-1.566 0.816,-0.364 1.565,-0.544 2.246,-0.544 1.089,0 2.008,0.419 2.757,1.259 0.748,0.839 1.123,1.826 1.123,2.961 0,0.681 -0.17,1.315 -0.511,1.906 -0.34,0.589 -0.85,1.066 -1.531,1.429 -3.313,1.815 -7.215,2.723 -11.708,2.723 -4.493,0 -8.645,-1.101 -12.457,-3.301 -3.812,-2.202 -6.83,-5.173 -9.053,-8.917 -2.224,-3.744 -3.335,-7.84 -3.335,-12.287 0,-4.448 1.111,-8.543 3.335,-12.286 2.223,-3.744 5.241,-6.717 9.053,-8.917 3.812,-2.202 7.964,-3.302 12.457,-3.302 5.309,0 10.187,1.384 14.635,4.153 1.406,0.861 2.11,2.086 2.11,3.675 v 14.431 c 0,1.179 -0.386,2.166 -1.157,2.961 C 2.155,-0.397 1.179,0 0,0"
         style="fill:#003c6a;fill-opacity:1;fill-rule:evenodd;stroke:none"
         id="path1050" /></g><g
       id="g1052"
       transform="translate(273.75882,941.62219)"><path
         d="m 0,0 c -1.181,0 -2.167,-0.398 -2.961,-1.191 -0.794,-0.795 -1.191,-1.782 -1.191,-2.961 v -42.067 c 0,-1.18 0.385,-2.167 1.157,-2.961 0.771,-0.795 1.724,-1.191 2.859,-1.191 1.179,0 2.166,0.396 2.961,1.191 0.793,0.794 1.191,1.781 1.191,2.961 v 42.067 c 0,1.179 -0.386,2.166 -1.157,2.961 C 2.087,-0.398 1.134,0 0,0"
         style="fill:#003c6a;fill-opacity:1;fill-rule:evenodd;stroke:none"
         id="path1054" /></g><g
       id="g1056"
       transform="translate(309.60202,903.50349)"><path
         d="m 0,0 c -0.932,-1.725 -2.179,-3.063 -3.744,-4.016 -1.566,-0.953 -3.301,-1.429 -5.208,-1.429 -1.905,0 -3.641,0.476 -5.207,1.429 -1.565,0.953 -2.814,2.291 -3.743,4.016 -0.931,1.724 -1.396,3.698 -1.396,5.922 0,2.223 0.465,4.208 1.396,5.956 0.929,1.747 2.178,3.097 3.743,4.05 1.566,0.953 3.302,1.429 5.207,1.429 1.907,0 3.642,-0.476 5.208,-1.429 C -2.179,14.975 -0.932,13.625 0,11.878 0.929,10.13 1.396,8.145 1.396,5.922 1.396,3.698 0.929,1.724 0,0 m 0.408,22.429 c -2.837,1.61 -5.956,2.416 -9.36,2.416 -3.448,0 -6.58,-0.806 -9.393,-2.416 -2.814,-1.612 -5.037,-3.858 -6.671,-6.739 -1.633,-2.882 -2.45,-6.138 -2.45,-9.768 0,-3.631 0.817,-6.887 2.45,-9.768 1.634,-2.882 3.857,-5.117 6.671,-6.705 2.813,-1.589 5.945,-2.382 9.393,-2.382 3.404,0 6.523,0.793 9.36,2.382 2.835,1.588 5.071,3.823 6.705,6.705 1.633,2.881 2.45,6.137 2.45,9.768 0,3.63 -0.817,6.886 -2.45,9.768 -1.634,2.881 -3.87,5.127 -6.705,6.739"
         style="fill:#003c6a;fill-opacity:1;fill-rule:evenodd;stroke:none"
         id="path1058" /></g><g
       id="g1060"
       transform="translate(348.95072,903.50349)"><path
         d="m 0,0 c -0.931,-1.725 -2.179,-3.063 -3.744,-4.016 -1.566,-0.953 -3.302,-1.429 -5.207,-1.429 -1.906,0 -3.642,0.476 -5.208,1.429 -1.566,0.953 -2.814,2.291 -3.743,4.016 -0.931,1.724 -1.396,3.698 -1.396,5.922 0,2.223 0.465,4.208 1.396,5.956 0.929,1.747 2.177,3.097 3.743,4.05 1.566,0.953 3.302,1.429 5.208,1.429 1.905,0 3.641,-0.476 5.207,-1.429 C -2.179,14.975 -0.931,13.625 0,11.878 0.929,10.13 1.396,8.145 1.396,5.922 1.396,3.698 0.929,1.724 0,0 m 0.408,22.429 c -2.837,1.61 -5.956,2.416 -9.359,2.416 -3.449,0 -6.581,-0.806 -9.394,-2.416 -0.057,-0.033 -0.111,-0.071 -0.169,-0.104 l -4.646,4.646 c 0.733,1.377 0.966,3.024 0.53,4.649 -0.912,3.405 -4.412,5.426 -7.817,4.514 -3.406,-0.913 -5.427,-4.413 -4.514,-7.818 0.912,-3.405 4.412,-5.426 7.817,-4.514 0.478,0.128 0.928,0.307 1.347,0.529 l 4.251,-4.251 c -1.355,-1.249 -2.516,-2.708 -3.47,-4.39 -1.633,-2.882 -2.45,-6.138 -2.45,-9.768 0,-3.631 0.817,-6.887 2.45,-9.768 1.634,-2.882 3.857,-5.117 6.671,-6.705 2.813,-1.589 5.945,-2.382 9.394,-2.382 3.403,0 6.522,0.793 9.359,2.382 2.835,1.588 5.071,3.823 6.705,6.705 1.633,2.881 2.45,6.137 2.45,9.768 0,3.63 -0.817,6.886 -2.45,9.768 -1.634,2.881 -3.87,5.127 -6.705,6.739"
         style="fill:#003c6a;fill-opacity:1;fill-rule:evenodd;stroke:none"
         id="path1062" /></g><text
       xml:space="preserve"
       style="font-style:normal;font-weight:normal;font-size:72px;line-height:1.25;font-family:sans-serif;letter-spacing:-2.625px;fill:#003c6a;fill-opacity:1;stroke:none;stroke-width:0.75"
       x="366.05508"
       y="-891.29053"
       id="text1592"
       transform="scale(1,-1)"
       inkscape:export-filename="/Users/artberger/Downloads/gloo-platform-docs.png"
       inkscape:export-xdpi="54.301228"
       inkscape:export-ydpi="54.301228"><tspan
         sodipodi:role="line"
         id="tspan1590"
         style="font-style:normal;font-variant:normal;font-weight:normal;font-stretch:normal;font-size:72px;font-family:Quicksand;-inkscape-font-specification:Quicksand;fill:#003c6a;fill-opacity:1;stroke-width:0.75"
         x="366.05508"
         y="-891.29053">Platform Docs</tspan></text><text
       xml:space="preserve"
       transform="matrix(0.75000002,0,0,-0.75000002,0,1000)"
       id="text17516"
       style="font-style:normal;font-weight:normal;font-size:40px;line-height:1.25;font-family:sans-serif;white-space:pre;shape-inside:url(#rect17518);fill:#000000;fill-opacity:1;stroke:none"
       inkscape:export-filename="/Users/artberger/Downloads/gloo-platform-docs.png"
       inkscape:export-xdpi="22.625511"
       inkscape:export-ydpi="22.625511" /><g
       id="g1068"
       transform="translate(-176.46358,601.65005)"><g
         id="g1070" /><g
         id="g1082"><g
           clip-path="url(#clipPath1074)"
           opacity="0.240005"
           id="g1080"><g
             transform="translate(300.228,288.4746)"
             id="g1078"><path
               d="m 0,0 c 53.414,0 96.714,-1.336 96.714,-2.983 0,-1.647 -43.3,-2.983 -96.714,-2.983 -53.414,0 -96.713,1.336 -96.713,2.983 C -96.713,-1.336 -53.414,0 0,0"
               style="fill:#000000;fill-opacity:1;fill-rule:evenodd;stroke:none"
               id="path1076" /></g></g></g></g><g
       id="g1084"
       transform="translate(210.78932,917.83365)"><path
         d="m 0,0 h -29.802 c -1.026,0 -1.865,-0.839 -1.865,-1.865 v -26.539 c 0,-1.027 0.839,-1.867 1.865,-1.867 H 0 c 1.027,0 1.866,0.84 1.866,1.867 V -1.865 C 1.866,-0.839 1.027,0 0,0"
         style="fill:#c32972;fill-opacity:1;fill-rule:evenodd;stroke:none"
         id="path1086" /></g><g
       id="g1088"
       transform="translate(174.35432,917.83365)"><path
         d="m 0,0 h -30.687 c -1.026,0 -1.866,-0.839 -1.866,-1.865 v -26.539 c 0,-1.027 0.84,-1.867 1.866,-1.867 H 0 c 1.026,0 1.865,0.84 1.865,1.867 V -1.865 C 1.865,-0.839 1.026,0 0,0"
         style="fill:#96c83f;fill-opacity:1;fill-rule:evenodd;stroke:none"
         id="path1090" /></g><g
       id="g1092"
       transform="translate(136.82602,917.83365)"><path
         d="m 0,0 h -30.492 c -1.027,0 -1.866,-0.839 -1.866,-1.865 v -26.539 c 0,-1.027 0.839,-1.867 1.866,-1.867 H 0 c 1.026,0 1.866,0.84 1.866,1.867 V -1.865 C 1.866,-0.839 1.026,0 0,0"
         style="fill:#bc4797;fill-opacity:1;fill-rule:evenodd;stroke:none"
         id="path1094" /></g><g
       id="g1096"
       transform="translate(190.40942,948.10515)"><path
         d="m 0,0 h -29.74 c -1.027,0 -1.866,-0.84 -1.866,-1.865 v -26.54 c 0,-1.027 0.839,-1.866 1.866,-1.866 H 0 c 1.026,0 1.866,0.839 1.866,1.866 v 26.54 C 1.866,-0.84 1.026,0 0,0"
         style="fill:#3f609d;fill-opacity:1;fill-rule:evenodd;stroke:none"
         id="path1098" /></g><g
       id="g1100"
       transform="translate(136.94262,917.83365)"><path
         d="m 0,0 h -23.008 c -0.963,0 -1.75,-0.786 -1.75,-1.749 v -26.772 c 0,-0.962 0.787,-1.75 1.75,-1.75 H 0 c 0.962,0 1.749,0.788 1.749,1.75 V -1.749 C 1.749,-0.786 0.962,0 0,0"
         style="fill:#e251b5;fill-opacity:1;fill-rule:evenodd;stroke:none"
         id="path1102" /></g><g
       id="g1104"
       transform="translate(153.75222,917.83365)"><path
         d="m 0,0 h -10.542 c -0.775,0 -1.409,-0.634 -1.409,-1.409 v -27.452 c 0,-0.776 0.634,-1.41 1.409,-1.41 H 0 c 0.775,0 1.409,0.634 1.409,1.41 V -1.409 C 1.409,-0.634 0.775,0 0,0"
         style="fill:#87b439;fill-opacity:1;fill-rule:evenodd;stroke:none"
         id="path1106" /></g><g
       id="g1108"
       transform="translate(190.02862,948.10515)"><path
         d="m 0,0 h -22.481 c -1.236,0 -2.247,-1.011 -2.247,-2.246 v -25.778 c 0,-1.236 1.011,-2.247 2.247,-2.247 H 0 c 1.236,0 2.247,1.011 2.247,2.247 V -2.246 C 2.247,-1.011 1.236,0 0,0"
         style="fill:#466baf;fill-opacity:1;fill-rule:evenodd;stroke:none"
         id="path1110" /></g><g
       id="g1112"
       transform="translate(154.24202,948.10515)"><path
         d="m 0,0 h -28.626 c -1.026,0 -1.866,-0.84 -1.866,-1.865 v -26.54 c 0,-1.027 0.84,-1.866 1.866,-1.866 H 0 c 1.026,0 1.866,0.839 1.866,1.866 v 26.54 C 1.866,-0.84 1.026,0 0,0"
         style="fill:#8c72b1;fill-opacity:1;fill-rule:evenodd;stroke:none"
         id="path1114" /></g><g
       id="g1116"
       transform="translate(144.17852,948.10515)"><path
         d="m 0,0 h -19.086 c -0.739,0 -1.342,-0.604 -1.342,-1.342 v -27.587 c 0,-0.738 0.603,-1.342 1.342,-1.342 H 0 c 0.738,0 1.342,0.604 1.342,1.342 V -1.342 C 1.342,-0.604 0.738,0 0,0"
         style="fill:#8062a8;fill-opacity:1;fill-rule:evenodd;stroke:none"
         id="path1118" /></g><g
       id="g1120"
       transform="translate(210.91142,917.83365)"><path
         d="m 0,0 h -21.205 c -0.96,0 -1.744,-0.784 -1.744,-1.743 v -26.783 c 0,-0.959 0.784,-1.745 1.744,-1.745 H 0 c 0.959,0 1.744,0.786 1.744,1.745 V -1.743 C 1.744,-0.784 0.959,0 0,0"
         style="fill:#df0296;fill-opacity:1;fill-rule:evenodd;stroke:none"
         id="path1122" /></g><g
       id="g1124"
       transform="translate(49.566218,966.90885)"><path
         d="M 0,0 C 3.543,-1.473 5.851,-3.27 8.712,-6.248 L 4.774,-9.24 c -1.046,1.089 -8.615,0.688 -7.493,1.564 2.24,1.747 0.834,3.275 -1.191,4.116 -3.82,2.232 -5.007,-7.913 -14.711,-4.991 -6.489,1.954 -9.379,8.012 -7.396,13.702 1.985,5.691 8.825,8.624 15.278,6.553 3.871,-1.243 5.754,-4.325 6.037,-7.74 C -4.412,0.468 -4.064,1.69 0,0"
         style="fill:#54acd5;fill-opacity:1;fill-rule:evenodd;stroke:none"
         id="path1126" /></g><g
       id="g1128"
       transform="translate(45.201918,938.99575)"><path
         d="m 0,0 c 2.185,-2.777 -7.159,-13.708 -12.437,-21.822 -5.277,-8.115 -10.07,-7.214 -12.71,-5.302 -2.641,1.912 -3.3,7.994 1.981,14.115 C -17.884,-6.889 -2.186,2.778 0,0"
         style="fill:#54acd5;fill-opacity:1;fill-rule:evenodd;stroke:none"
         id="path1130" /></g><g
       id="g1132"
       transform="translate(105.76352,931.74475)"><path
         d="m 0,0 c -0.96,3.401 11.846,9.942 19.819,15.431 7.973,5.489 12.06,2.827 13.772,0.052 C 35.303,12.709 33.592,6.836 26.376,3.191 19.16,-0.452 0.961,-3.401 0,0"
         style="fill:#54acd5;fill-opacity:1;fill-rule:evenodd;stroke:none"
         id="path1134" /></g><g
       id="g1136"
       transform="translate(58.487118,886.43715)"><path
         d="M 0,0 C 9.096,0 10.826,5.932 16.84,5.979 22.854,6.027 25.466,0 34.24,0 c 14.185,0 23.418,30.458 23.418,47.129 0,21.358 -18.111,35.734 -40.451,35.734 -22.341,0 -40.452,-14.376 -40.452,-35.734 C -23.245,21.853 -12.451,0 0,0"
         style="fill:#54acd5;fill-opacity:1;fill-rule:evenodd;stroke:none"
         id="path1138" /></g><g
       id="g1140"
       transform="translate(77.434818,968.28285)"><path
         d="m 0,0 c 19.923,0 36.073,-16.15 36.073,-36.073 0,-36.289 -71.921,-38.129 -71.921,5.237 C -35.848,-10.913 -19.923,0 0,0"
         style="fill:#5bbae0;fill-opacity:1;fill-rule:evenodd;stroke:none"
         id="path1142" /></g><g
       id="g1144"
       transform="translate(120.50662,941.51235)"><path
         d="m 0,0 c -0.346,1.428 3.101,2.276 6.753,5.154 3.652,2.878 6.063,2.964 6.409,1.537 C 13.507,5.264 11.652,3.089 8.234,1.46 4.817,-0.169 0.346,-1.427 0,0"
         style="fill:#ffffff;fill-opacity:1;fill-rule:evenodd;stroke:none"
         id="path1146" /></g><g
       id="g1148"
       transform="translate(33.463618,930.90595)"><path
         d="m 0,0 c 1.353,-0.643 -3.048,-1.393 -7.344,-8.81 -1.534,-2.647 -1.901,-4.108 -3.247,-3.773 -0.577,0.145 -1.901,0.943 0.305,4.61 C -8.08,-4.307 -1.498,0.711 0,0 m -10.443,-13.605 c 0.72,-0.416 1.005,-1.485 0.636,-2.387 -0.369,-0.904 -1.252,-1.298 -1.971,-0.882 -0.721,0.416 -1.005,1.484 -0.636,2.387 0.369,0.902 1.251,1.297 1.971,0.882"
         style="fill:#ffffff;fill-opacity:1;fill-rule:evenodd;stroke:none"
         id="path1150" /></g><g
       id="g1152"
       transform="translate(75.720018,927.74375)"><path
         d="m 0,0 c 6.118,0 8.368,2.15 11.024,-0.222 2.655,-2.372 -2.38,-10.2 -11.078,-10.2 -8.696,0 -13.581,7.747 -11.077,10.2 C -8.627,2.231 -6.118,0 0,0"
         style="fill:#003c6a;fill-opacity:1;fill-rule:evenodd;stroke:none"
         id="path1154" /></g><g
       id="g1156"
       transform="translate(81.525718,919.98505)"><path
         d="m 0,0 c -1.573,-0.971 -3.567,-1.638 -5.874,-1.638 -2.387,0 -4.426,0.707 -6.009,1.726 0.133,1.855 3.453,2.854 5.939,1.625 C -3.335,2.942 -0.056,1.896 0,0"
         style="fill:#54acd5;fill-opacity:1;fill-rule:evenodd;stroke:none"
         id="path1158" /></g><g
       id="g1160"
       transform="translate(75.717618,927.03875)"><path
         d="M 0,0 C 4.005,0 6.21,0.864 8.023,0.861 8.024,0.831 8.024,0.8 8.024,0.769 c 0,-1.398 -1.048,-2.532 -2.341,-2.532 -0.419,0 -0.812,0.119 -1.152,0.327 -0.428,-0.831 -1.314,-1.402 -2.337,-1.402 -0.905,0 -1.701,0.446 -2.17,1.123 -0.468,-0.677 -1.265,-1.123 -2.17,-1.123 -1.042,0 -1.941,0.593 -2.36,1.448 -0.356,-0.236 -0.775,-0.373 -1.224,-0.373 -1.293,0 -2.342,1.134 -2.342,2.532 0,0.041 10e-4,0.081 0.003,0.122 C -6.258,0.853 -4.006,0 0,0"
         style="fill:#ffffff;fill-opacity:1;fill-rule:evenodd;stroke:none"
         id="path1162" /></g><g
       id="g1164"
       transform="translate(76.288818,957.40785)"><path
         d="M 0,0 C -7.048,-1.444 -9.239,5.354 -0.327,7.505 10.837,10.2 26.687,2.923 31.441,-7.097 32.707,-9.766 30.727,-10.766 28.566,-8.092 22.582,-0.687 11.823,2.423 0,0 m 31.948,-11.073 c 0.789,0.134 1.659,-0.512 1.943,-1.445 0.285,-0.93 -0.124,-1.795 -0.913,-1.928 -0.789,-0.134 -1.659,0.512 -1.943,1.444 -0.285,0.932 0.125,1.795 0.913,1.929"
         style="fill:#eef7f8;fill-opacity:1;fill-rule:evenodd;stroke:none"
         id="path1166" /></g><g
       id="g1168"
       transform="translate(99.233721,941.12075)"><path
         d="m 0,0 c 3.541,0.137 6.521,-2.624 6.657,-6.165 0.136,-3.541 -2.624,-6.522 -6.165,-6.657 -3.541,-0.136 -6.521,2.624 -6.658,6.165 C -6.301,-3.116 -3.541,-0.136 0,0"
         style="fill:#003c6a;fill-opacity:1;fill-rule:evenodd;stroke:none"
         id="path1170" /></g><g
       id="g1172"
       transform="translate(102.21852,939.17835)"><path
         d="M 0,0 C 0.987,0.037 1.819,-0.732 1.857,-1.72 1.895,-2.708 1.125,-3.539 0.137,-3.577 -0.851,-3.615 -1.682,-2.845 -1.72,-1.857 -1.758,-0.87 -0.988,-0.038 0,0"
         style="fill:#eef7f8;fill-opacity:1;fill-rule:evenodd;stroke:none"
         id="path1174" /></g><g
       id="g1176"
       transform="translate(56.626718,939.48595)"><path
         d="m 0,0 c 3.541,0.136 6.521,-2.624 6.657,-6.165 0.136,-3.541 -2.624,-6.522 -6.165,-6.657 -3.541,-0.137 -6.522,2.624 -6.658,6.165 C -6.301,-3.116 -3.542,-0.136 0,0"
         style="fill:#003c6a;fill-opacity:1;fill-rule:evenodd;stroke:none"
         id="path1178" /></g><g
       id="g1180"
       transform="translate(59.611118,937.54265)"><path
         d="M 0,0 C 0.988,0.038 1.819,-0.731 1.857,-1.72 1.895,-2.707 1.125,-3.539 0.138,-3.576 -0.851,-3.614 -1.682,-2.845 -1.72,-1.856 -1.757,-0.869 -0.988,-0.037 0,0"
         style="fill:#eef7f8;fill-opacity:1;fill-rule:evenodd;stroke:none"
         id="path1182" /></g><g
       id="g1184"
       transform="translate(36.846018,977.39515)"><path
         d="m 0,0 c 2.426,0 4.394,-1.967 4.394,-4.394 0,-4.419 -8.761,-4.643 -8.761,0.638 C -4.367,-1.329 -2.427,0 0,0"
         style="fill:#ffffff;fill-opacity:1;fill-rule:evenodd;stroke:none"
         id="path1186" /></g><g
       id="g1188"
       transform="translate(122.11062,980.06115)"><path
         d="m 0,0 h 34.466 c 1.184,0 2.152,-0.968 2.152,-2.151 v -30.611 c 0,-1.183 -0.968,-2.152 -2.152,-2.152 H 0 c -1.184,0 -2.152,0.969 -2.152,2.152 V -2.151 C -2.152,-0.968 -1.184,0 0,0"
         style="fill:#fbc65f;fill-opacity:1;fill-rule:evenodd;stroke:none"
         id="path1190" /></g><g
       id="g1192"
       transform="translate(131.57892,980.06115)"><path
         d="m 0,0 h 24.828 c 1.277,0 2.322,-1.044 2.322,-2.322 v -30.269 c 0,-1.278 -1.045,-2.323 -2.322,-2.323 H 0 c -1.277,0 -2.322,1.045 -2.322,2.323 V -2.322 C -2.322,-1.044 -1.277,0 0,0"
         style="fill:#fbdd75;fill-opacity:1;fill-rule:evenodd;stroke:none"
         id="path1194" /></g><g
       id="g1196"
       transform="translate(171.85522,927.15105)"><path
         d="M 0,0 5.342,10.624 V 0.974 Z"
         style="fill:#ffffff;fill-opacity:1;fill-rule:evenodd;stroke:none"
         id="path1198" /></g><g
       id="g1200"
       transform="translate(177.19702,923.54555)"><path
         d="M 0,0 -5.342,2.72 H 9.06 Z"
         style="fill:#ffffff;fill-opacity:1;fill-rule:evenodd;stroke:none"
         id="path1202" /></g><g
       id="g1204"
       transform="translate(186.25662,927.15105)"><path
         d="M 0,0 -8.115,17.766 V 0.974 Z"
         style="fill:#ffffff;fill-opacity:1;fill-rule:evenodd;stroke:none"
         id="path1206" /></g><g
       id="g1208"
       transform="translate(122.45242,896.49865)"><path
         d="m 0,0 -0.541,-0.23 -1.681,-0.716 c -0.177,-0.075 -0.371,-0.053 -0.521,0.043 l -0.001,-0.001 -1.88,1.192 -1.879,1.192 c -0.168,0.108 -0.261,0.29 -0.261,0.476 h -10e-4 v 1.837 1.992 c 0,0.248 0.16,0.457 0.381,0.534 l 1.644,0.7 0.616,0.262 V 6.059 L -4.299,5.984 -5.637,5.414 V 3.793 2.266 L -4.02,1.239 -2.39,0.205 -1.153,0.731 Z M 1.683,3.238 V 2.925 1.896 L 0.555,2.611 v 0.314 1.029 z m -3.304,4.084 1.162,-0.737 0.205,-0.13 V 5.121 L -1.062,5.634 -1.621,5.988 Z M 5.38,0.893 4.737,0.619 2.289,-0.424 C 2.076,-0.514 1.844,-0.487 1.663,-0.373 v 0 L -0.786,1.18 -3.234,2.733 c -0.204,0.129 -0.314,0.348 -0.314,0.571 h -10e-4 v 2.393 2.596 c 0,0.298 0.191,0.55 0.458,0.641 l 2.403,1.023 0.434,0.186 V 8.675 L -2.196,7.849 V 5.697 3.675 L -0.062,2.321 2.087,0.958 3.996,1.771 Z M 2.694,10.754 4.834,9.396 7.283,7.843 C 7.486,7.714 7.597,7.495 7.597,7.271 H 7.598 V 4.676 2.858 L 7.463,2.802 6.245,3.574 V 4.676 6.9 L 4.111,8.255 2.475,9.292 v 1.369 z M 10.026,11.57 7.263,13.325 4.532,12.162 1.899,11.041 V 8.26 5.65 L 4.646,3.907 7.41,2.153 10.142,3.316 12.773,4.437 V 6.96 9.828 Z m -2.267,3.308 3.113,-1.976 3.113,-1.975 c 0.236,-0.15 0.366,-0.406 0.366,-0.665 h 10e-4 V 6.96 3.918 c 0,-0.347 -0.223,-0.641 -0.534,-0.747 L 10.758,1.867 7.645,0.542 C 7.397,0.437 7.126,0.468 6.915,0.602 V 0.601 L 3.801,2.575 0.688,4.551 C 0.452,4.701 0.322,4.956 0.322,5.217 H 0.321 v 3.043 3.301 c 0,0.345 0.223,0.64 0.533,0.746 l 3.061,1.303 3.113,1.327 c 0.248,0.105 0.518,0.074 0.73,-0.06 z"
         style="fill:#ffffff;fill-opacity:1;fill-rule:evenodd;stroke:none"
         id="path1210" /></g><g
       id="g1212"
       transform="translate(146.78492,973.72325)"><path
         d="M 0,0 1.017,-1.761 2.033,-3.521 1.017,-5.282 0,-7.042 h -2.033 -2.033 l -1.016,1.76 -1.017,1.761 1.016,1.76 L -4.066,0 h 2.033 z"
         style="fill:#373737;fill-opacity:1;fill-rule:evenodd;stroke:none"
         id="path1214" /></g><g
       id="g1216"
       transform="translate(146.25952,972.81315)"><path
         d="M 0,0 0.754,-1.306 1.508,-2.611 0.754,-3.917 0,-5.223 h -1.508 -1.507 l -0.754,1.306 -0.754,1.306 0.754,1.305 L -3.015,0 h 1.507 z"
         style="fill:#f8c514;fill-opacity:1;fill-rule:evenodd;stroke:none"
         id="path1218" /></g><g
       id="g1220"
       transform="translate(136.13942,969.92445)"><path
         d="M 0,0 H 2.033 4.066 L 5.083,-1.761 6.099,-3.521 5.083,-5.281 4.066,-7.042 H 2.033 L 0,-7.043 l -1.017,1.761 -1.016,1.761 1.016,1.76 z"
         style="fill:#373737;fill-opacity:1;fill-rule:evenodd;stroke:none"
         id="path1222" /></g><g
       id="g1224"
       transform="translate(136.66482,969.01435)"><path
         d="M 0,0 H 1.507 3.015 L 3.769,-1.305 4.523,-2.611 3.769,-3.916 3.015,-5.223 H 1.507 0 l -0.754,1.307 -0.754,1.305 0.754,1.306 z"
         style="fill:#c9dd72;fill-opacity:1;fill-rule:evenodd;stroke:none"
         id="path1226" /></g><g
       id="g1228"
       transform="translate(134.10622,958.80535)"><path
         d="m 0,0 1.017,1.761 1.016,1.76 H 4.066 6.099 L 7.116,1.761 8.132,0 7.116,-1.76 6.099,-3.521 H 4.066 2.033 L 1.017,-1.76 Z"
         style="fill:#373737;fill-opacity:1;fill-rule:evenodd;stroke:none"
         id="path1230" /></g><g
       id="g1232"
       transform="translate(135.15702,958.80535)"><path
         d="M 0,0 0.754,1.307 1.508,2.612 H 3.015 4.523 L 5.277,1.307 6.031,0 5.277,-1.306 4.523,-2.611 H 3.015 1.508 l -0.754,1.305 z"
         style="fill:#96c83f;fill-opacity:1;fill-rule:evenodd;stroke:none"
         id="path1234" /></g><g
       id="g1236"
       transform="translate(142.71902,951.48595)"><path
         d="m 0,0 -1.016,1.761 -1.017,1.76 1.017,1.76 L 0,7.042 H 2.033 4.066 L 5.083,5.281 6.099,3.521 5.083,1.761 4.066,0 H 2.033 Z"
         style="fill:#373737;fill-opacity:1;fill-rule:evenodd;stroke:none"
         id="path1238" /></g><g
       id="g1240"
       transform="translate(143.24442,952.39615)"><path
         d="M 0,0 -0.754,1.306 -1.508,2.611 -0.754,3.916 0,5.223 H 1.507 3.015 L 3.77,3.916 4.523,2.611 3.77,1.306 3.015,0 H 1.507 Z"
         style="fill:#6388c5;fill-opacity:1;fill-rule:evenodd;stroke:none"
         id="path1242" /></g><g
       id="g1244"
       transform="translate(153.36452,955.28485)"><path
         d="m 0,0 h -2.033 -2.033 l -1.017,1.761 -1.016,1.76 1.017,1.76 1.016,1.761 H -2.033 0 L 1.017,5.281 2.033,3.521 1.017,1.761 Z"
         style="fill:#373737;fill-opacity:1;fill-rule:evenodd;stroke:none"
         id="path1246" /></g><g
       id="g1248"
       transform="translate(152.83962,956.19395)"><path
         d="M 0,0 H -1.508 -3.016 L -3.77,1.306 -4.523,2.611 -3.77,3.917 -3.016,5.224 H -1.508 0 L 0.753,3.918 1.507,2.611 0.753,1.306 Z"
         style="fill:#8062a8;fill-opacity:1;fill-rule:evenodd;stroke:none"
         id="path1250" /></g><g
       id="g1252"
       transform="translate(155.39772,966.40295)"><path
         d="M 0,0 -1.017,-1.76 -2.033,-3.521 H -4.066 -6.099 L -7.115,-1.76 -8.132,0 l 1.017,1.761 1.016,1.76 h 2.033 2.033 l 1.016,-1.76 z"
         style="fill:#373737;fill-opacity:1;fill-rule:evenodd;stroke:none"
         id="path1254" /></g><g
       id="g1256"
       transform="translate(154.34692,966.40295)"><path
         d="M 0,0 -0.754,-1.306 -1.507,-2.611 H -3.015 -4.523 L -5.277,-1.306 -6.03,0 l 0.753,1.307 0.754,1.304 h 1.508 1.508 l 0.753,-1.304 z"
         style="fill:#f17424;fill-opacity:1;fill-rule:evenodd;stroke:none"
         id="path1258" /></g><g
       id="g1260"
       transform="translate(146.78492,966.12565)"><path
         d="M 0,0 1.017,-1.761 2.033,-3.521 1.017,-5.282 0,-7.042 h -2.033 -2.033 l -1.016,1.76 -1.017,1.761 1.016,1.76 L -4.066,0 h 2.033 z"
         style="fill:#373737;fill-opacity:1;fill-rule:evenodd;stroke:none"
         id="path1262" /></g><g
       id="g1264"
       transform="translate(146.25952,965.21645)"><path
         d="M 0,0 0.754,-1.306 1.508,-2.612 0.754,-3.917 0,-5.224 h -1.508 -1.507 l -0.754,1.307 -0.754,1.305 0.754,1.306 L -3.015,0 h 1.507 z"
         style="fill:#e8232a;fill-opacity:1;fill-rule:evenodd;stroke:none"
         id="path1266" /></g><g
       id="g1268"
       transform="translate(198.79132,910.31705)"><path
         d="m 0,0 -3.96,-2.313 c -0.537,0.209 -0.604,0.606 -1.565,0.505 -1.102,-0.114 -1.866,-1.379 -1.347,-2.508 0.263,-0.573 0.615,-0.713 1.169,-0.972 l 0.01,-4.66 c -1.286,-0.516 -1.682,-1.6 -1.106,-2.618 0.227,-0.402 0.66,-0.75 1.228,-0.844 0.877,-0.145 1.1,0.268 1.605,0.48 l 4.009,-2.297 c -0.309,-2.342 2.035,-2.845 3.046,-1.639 0.399,0.474 0.427,0.951 0.354,1.724 0.824,0.335 3.51,2.137 4.037,2.254 2.327,-1.996 4.581,1.919 1.717,2.932 l -0.005,4.681 c 2.079,0.703 1.529,3.201 -0.093,3.457 C 8.184,-1.674 7.986,-2.06 7.48,-2.311 L 3.465,-0.014 C 3.478,0.73 3.546,1.097 3.13,1.595 2.819,1.968 2.396,2.26 1.758,2.263 1.096,2.265 0.647,1.946 0.374,1.605 -0.036,1.094 0.033,0.761 0,0 m -4.06,-10.389 c 0.106,-0.132 0.232,-0.296 0.294,-0.406 0.087,-0.152 0.154,-0.416 0.321,-0.458 H 7.073 c 0.138,0.426 0.221,0.512 0.435,0.848 -0.116,0.448 -4.9,8.586 -5.231,9.143 l -1.081,0.034 z m 0.491,7.326 c 0.1,-1.323 -0.332,-1.815 -1.285,-2.209 v -4.669 c 0.277,0.119 3.694,6.255 4.047,6.858 0.222,0.375 1.224,2.001 1.295,2.33 -0.342,-0.088 -3.648,-2.031 -4.057,-2.31 M 8.351,-9.95 8.353,-5.281 C 6.921,-4.643 7.117,-4.156 7.031,-3.047 L 3.024,-0.723 C 3.095,-1.122 4.06,-2.668 4.31,-3.1 4.747,-3.856 5.141,-4.554 5.641,-5.409 5.945,-5.931 8.104,-9.83 8.351,-9.95 m -7.932,-4.524 c 0.444,0.156 0.562,0.495 1.338,0.49 0.732,-0.005 0.89,-0.321 1.338,-0.528 0.455,0.237 3.895,2.168 3.985,2.378 l -10.649,0.03 c 0.328,-0.317 3.42,-2.072 3.988,-2.37"
         style="fill:#ffffff;fill-opacity:1;fill-rule:evenodd;stroke:none"
         id="path1270" /></g></g></svg>
