<?xml version="1.0" encoding="UTF-8" standalone="no"?>
<!-- Created with Inkscape (http://www.inkscape.org/) -->

<svg
   version="1.1"
   id="svg3589"
   xml:space="preserve"
   width="1289.5002"
   height="139.11957"
   viewBox="0 0 1289.5003 139.11958"
   sodipodi:docname="platform-docs.svg"
   inkscape:version="1.1 (c4e8f9e, 2021-05-24)"
   xmlns:inkscape="http://www.inkscape.org/namespaces/inkscape"
   xmlns:sodipodi="http://sodipodi.sourceforge.net/DTD/sodipodi-0.dtd"
   xmlns="http://www.w3.org/2000/svg"
   xmlns:svg="http://www.w3.org/2000/svg"><defs
     id="defs3593"><clipPath
       clipPathUnits="userSpaceOnUse"
       id="clipPath3603"><path
         d="M 0,1000 H 1000 V 0 H 0 Z"
         id="path3601" /></clipPath><clipPath
       clipPathUnits="userSpaceOnUse"
       id="clipPath3615"><path
         d="m 117.695,454.28 h 260.533 v -7.577 H 117.695 Z"
         id="path3613" /></clipPath></defs><sodipodi:namedview
     id="namedview3591"
     pagecolor="#ffffff"
     bordercolor="#666666"
     borderopacity="1.0"
     inkscape:pageshadow="2"
     inkscape:pageopacity="0.0"
     inkscape:pagecheckerboard="0"
     showgrid="false"
     inkscape:zoom="0.40488722"
     inkscape:cx="590.28783"
     inkscape:cy="-9.8792942"
     inkscape:window-width="1377"
     inkscape:window-height="982"
     inkscape:window-x="2046"
     inkscape:window-y="25"
     inkscape:window-maximized="0"
     inkscape:current-layer="g3595" /><g
     id="g3595"
     inkscape:groupmode="layer"
     inkscape:label="new glooys 2 Platform"
     transform="matrix(1.3333333,0,0,-1.3333333,-147.40077,735.67098)"><path
       id="path3607"
       style="fill:#003c6a;fill-opacity:1;fill-rule:evenodd;stroke:none;stroke-width:0.999998"
       d="m 441.75848,524.64309 c -1.534,0 -2.81622,-0.51687 -3.84522,-1.54687 -1.032,-1.033 -1.54834,-2.31322 -1.54834,-3.84522 v -54.62989 c 0,-1.53399 0.50093,-2.81621 1.50293,-3.84521 1.002,-1.032 2.23791,-1.54834 3.71192,-1.54834 1.53199,0 2.81367,0.51634 3.84667,1.54834 1.029,1.029 1.54688,2.31122 1.54688,3.84521 V 519.251 c 0,1.532 -0.50193,2.81222 -1.50293,3.84522 -1.003,1.03 -2.24092,1.54687 -3.71191,1.54687 z m -34.57178,-2.65283 c -5.834,0 -11.22381,-1.42813 -16.17481,-4.28613 -4.95099,-2.86 -8.86883,-6.71859 -11.75683,-11.57959 -2.88801,-4.863 -4.33155,-10.18055 -4.33155,-15.95655 0,-5.776 1.44354,-11.09501 4.33155,-15.95801 2.888,-4.86099 6.80584,-8.72012 11.75683,-11.57812 4.951,-2.859 10.34081,-4.28907 16.17481,-4.28907 6.896,0 13.22935,1.79756 19.00634,5.39356 1.82601,1.119 2.74073,2.70946 2.74073,4.77246 v 18.74121 c 0,1.532 -0.50193,2.81322 -1.50293,3.84522 -1.003,1.03 -2.26781,1.54687 -3.7998,1.54687 h -14.49903 c -1.532,0 -2.81521,-0.50093 -3.84522,-1.50293 -1.03099,-1.002 -1.54687,-2.26827 -1.54687,-3.80127 0,-1.534 0.51588,-2.7978 1.54687,-3.7998 1.03001,-1.002 2.31322,-1.50293 3.84522,-1.50293 h 8.30859 v -11.49316 c -1.413,-0.471 -3.0637,-0.85344 -4.9497,-1.14844 -1.886,-0.296 -3.6532,-0.43945 -5.3042,-0.43945 -3.772,0 -7.24769,0.95609 -10.42969,2.87109 -3.182,1.915 -5.70013,4.49337 -7.55713,7.73437 -1.856,3.239 -2.78613,6.7764 -2.78613,10.6084 0,3.831 0.93013,7.36494 2.78613,10.60694 1.857,3.24 4.37513,5.81837 7.55713,7.73437 3.182,1.914 6.65769,2.87256 10.42969,2.87256 3.418,0 6.71834,-0.67674 9.90234,-2.03174 1.059,-0.474 2.03397,-0.70752 2.91797,-0.70752 1.414,0 2.60562,0.54423 3.57861,1.63623 0.973,1.088 1.45899,2.37122 1.45899,3.84522 0,0.882 -0.22158,1.70812 -0.66357,2.47412 -0.44201,0.766 -1.1048,1.38442 -1.9878,1.85742 -4.302,2.356 -9.37154,3.53467 -15.20654,3.53467 z m 69.49365,-14.58545 c -4.479,0 -8.54476,-1.0477 -12.19775,-3.1377 -3.65501,-2.093 -6.54255,-5.00897 -8.66456,-8.75097 -2.121,-3.742 -3.18017,-7.97202 -3.18017,-12.68702 0,-4.715 1.05917,-8.94308 3.18017,-12.68408 2.12201,-3.74199 5.00955,-6.64503 8.66456,-8.70703 3.65299,-2.062 7.71875,-3.09522 12.19775,-3.09522 4.42101,0 8.47028,1.03322 12.15528,3.09522 3.68199,2.062 6.58503,4.96504 8.70703,8.70703 2.12,3.741 3.18311,7.96908 3.18311,12.68408 0,4.715 -1.06311,8.94502 -3.18311,12.68702 -2.122,3.742 -5.02504,6.65797 -8.70703,8.75097 -3.685,2.09 -7.73427,3.1377 -12.15528,3.1377 z m 51.72363,0 c -4.47799,0 -8.54575,-1.0477 -12.19775,-3.1377 -3.655,-2.093 -6.54255,-5.00897 -8.66455,-8.75097 -2.121,-3.742 -3.18164,-7.97202 -3.18164,-12.68702 0,-4.715 1.06064,-8.94308 3.18164,-12.68408 2.122,-3.74199 5.00955,-6.64503 8.66455,-8.70703 3.652,-2.062 7.71976,-3.09522 12.19775,-3.09522 4.42101,0 8.47174,1.03322 12.15675,3.09522 3.681,2.062 6.58403,4.96504 8.70702,8.70703 2.12001,3.741 3.18018,7.96908 3.18018,12.68408 0,4.715 -1.06017,8.94502 -3.18018,12.68702 -2.12299,3.742 -5.02602,6.65797 -8.70702,8.75097 -3.68501,2.09 -7.73574,3.1377 -12.15675,3.1377 z m -51.72363,-9.7251 c 2.475,0 4.73019,-0.61749 6.76319,-1.85449 2.03299,-1.238 3.65328,-2.99226 4.86328,-5.26026 1.206,-2.27 1.81054,-4.84884 1.81054,-7.73584 0,-2.886 -0.60454,-5.45042 -1.81054,-7.69043 -1.21,-2.23899 -2.83029,-3.97584 -4.86328,-5.21484 -2.033,-1.237 -4.28819,-1.85595 -6.76319,-1.85595 -2.475,0 -4.72772,0.61895 -6.76172,1.85595 -2.032,1.239 -3.65582,2.97585 -4.86182,5.21484 -1.209,2.24001 -1.812,4.80443 -1.812,7.69043 0,2.887 0.603,5.46584 1.812,7.73584 1.206,2.268 2.82982,4.02226 4.86182,5.26026 2.034,1.237 4.28672,1.85449 6.76172,1.85449 z m 51.72363,0 c 2.47601,0 4.73019,-0.61749 6.76319,-1.85449 2.032,-1.238 3.65182,-2.99226 4.86181,-5.26026 1.206,-2.27 1.81202,-4.84884 1.81202,-7.73584 0,-2.886 -0.60602,-5.45042 -1.81202,-7.69043 -1.20999,-2.23899 -2.82981,-3.97584 -4.86181,-5.21484 -2.033,-1.237 -4.28718,-1.85595 -6.76319,-1.85595 -2.47399,0 -4.72771,0.61895 -6.76171,1.85595 -2.033,1.239 -3.65582,2.97585 -4.86182,5.21484 -1.209,2.24001 -1.81201,4.80443 -1.81201,7.69043 0,2.887 0.60301,5.46584 1.81201,7.73584 1.206,2.268 2.82882,4.02226 4.86182,5.26026 2.034,1.237 4.28772,1.85449 6.76171,1.85449 z m 39.7339,-6.39111 c -0.0239,-0.0452 -0.0532,-0.10288 -0.0776,-0.14942 0.004,-0.0657 -0.001,-0.13067 0.002,-0.19629 0.0143,0.0378 0.0593,0.10237 0.0688,0.13477 0.0133,0.0454 -2.2e-4,0.14746 0.007,0.21094 z m -1.50147,-29.15479 c 0.001,-0.0889 -0.007,-0.13858 -0.005,-0.23145 0.003,-0.37944 0.0742,-0.78909 0.10693,-1.17919 0.32276,-0.2463 0.63018,-0.47277 1.03125,-0.75 0.003,0.003 0.007,0.003 0.0103,0.006 0.0257,0.0257 0.0327,0.0614 0.0571,0.0879 -0.19653,0.52096 -0.3659,1.04988 -0.54932,1.57764 -0.262,0.18816 -0.37508,0.29495 -0.65185,0.48926 z" /><text
       xml:space="preserve"
       style="font-style:normal;font-weight:normal;font-size:84px;line-height:1.25;font-family:sans-serif;letter-spacing:-2.25px;fill:#003c6a;fill-opacity:1;stroke:none;stroke-width:0.75"
       x="557.42896"
       y="-461.66345"
       id="text8820"
       transform="scale(1,-1)"><tspan
         id="tspan8818"
         style="font-style:normal;font-variant:normal;font-weight:normal;font-stretch:normal;font-size:84px;font-family:Quicksand;-inkscape-font-specification:Quicksand;fill:#003c6a;fill-opacity:1;stroke-width:0.75"
         x="557.42896"
         y="-461.66345"
         sodipodi:role="line">Platform Docs</tspan></text><path
       class="st1"
       d="m 246.23535,454.82461 c 69.88147,0 126.64194,-1.65773 126.64194,-3.70552 0,-2.04778 -56.66327,-3.70552 -126.64194,-3.70552 -69.88145,0 -126.64193,1.65774 -126.64193,3.70552 0,2.04779 56.76048,3.70552 126.64193,3.70552"
       id="path3376"
       style="clip-rule:evenodd;opacity:0.3;fill:#003c6a;fill-rule:evenodd;stroke-width:0.749999" /><path
       class="st17"
       d="m 346.05214,495.39032 h -43.44508 c -1.4579,0 -2.7214,-1.26768 -2.7214,-2.73038 v -38.81047 c 0,-1.4627 1.2635,-2.73038 2.7214,-2.73038 h 43.44508 c 1.45788,0 2.72138,1.26768 2.72138,2.73038 v 38.81047 c 0,1.4627 -1.2635,2.73038 -2.72138,2.73038"
       id="path3378"
       style="clip-rule:evenodd;fill:#1756bc;fill-rule:evenodd;stroke-width:0.749999" /><path
       class="st18"
       d="m 292.88779,495.39032 h -44.70858 c -1.45789,0 -2.72139,-1.26768 -2.72139,-2.73038 v -38.81047 c 0,-1.4627 1.2635,-2.73038 2.72139,-2.73038 h 44.70858 c 1.4579,0 2.7214,1.26768 2.7214,2.73038 v 38.81047 c 0,1.4627 -1.16631,2.73038 -2.7214,2.73038"
       id="path3380"
       style="clip-rule:evenodd;fill:#fbc65f;fill-rule:evenodd;stroke-width:0.749999" /><path
       class="st19"
       d="m 240.01503,495.39032 h -44.417 c -1.4579,0 -2.7214,-1.26768 -2.7214,-2.73038 v -38.81047 c 0,-1.4627 1.2635,-2.73038 2.7214,-2.73038 h 44.417 c 1.45789,0 2.72139,1.26768 2.72139,2.73038 v 38.81047 c 0,1.4627 -1.2635,2.73038 -2.72139,2.73038"
       id="path3382"
       style="clip-rule:evenodd;fill:#bc4797;fill-rule:evenodd;stroke-width:0.749999" /><path
       class="st20"
       d="m 316.3112,539.66155 h -43.34788 c -1.45789,0 -2.7214,-1.26768 -2.7214,-2.73038 V 498.1207 c 0,-1.46271 1.26351,-2.73038 2.7214,-2.73038 h 43.34788 c 1.4579,0 2.7214,1.26767 2.7214,2.73038 v 38.81047 c 0,1.4627 -1.2635,2.73038 -2.7214,2.73038"
       id="path3384"
       style="clip-rule:evenodd;fill:#bf0a17;fill-rule:evenodd;stroke-width:0.749999" /><path
       class="st21"
       d="m 240.11223,495.39032 h -33.53144 c -1.3607,0 -2.52701,-1.17017 -2.52701,-2.53536 v -39.103 c 0,-1.36519 1.16631,-2.53535 2.52701,-2.53535 h 33.53144 c 1.36069,0 2.52701,1.17016 2.52701,2.53535 v 39.103 c 0.0972,1.36519 -1.06913,2.53536 -2.52701,2.53536"
       id="path3386"
       style="clip-rule:evenodd;fill:#e251b5;fill-rule:evenodd;stroke-width:0.749999" /><path
       class="st22"
       d="m 261.30021,495.39032 h -13.99573 c -1.06913,0 -1.84666,-0.97514 -1.84666,-2.04779 v -40.17565 c 0,-1.17016 0.87473,-2.04779 1.84666,-2.04779 h 13.99573 c 1.06911,0 1.84666,0.97514 1.84666,2.04779 v 40.17565 c 0,1.17016 -0.77755,2.04779 -1.84666,2.04779"
       id="path3388"
       style="clip-rule:evenodd;fill:#ffb830;fill-rule:evenodd;stroke-width:0.749999" /><path
       class="st4"
       d="m 315.72805,539.66155 h -32.7539 c -1.84665,0 -3.30455,-1.46271 -3.30455,-3.31547 v -37.73781 c 0,-1.85276 1.4579,-3.31547 3.30455,-3.31547 h 32.7539 c 1.84666,0 3.30455,1.46271 3.30455,3.31547 v 37.73781 c 0,1.85276 -1.45789,3.31547 -3.30455,3.31547"
       id="path3390"
       style="clip-rule:evenodd;fill:#e005a3;fill-rule:evenodd;stroke-width:0.749999" /><path
       class="st16"
       d="m 263.63283,539.66155 h -41.69562 c -1.45788,0 -2.72139,-1.26768 -2.72139,-2.73038 V 498.1207 c 0,-1.46271 1.26351,-2.73038 2.72139,-2.73038 h 41.69562 c 1.45788,0 2.7214,1.26767 2.7214,2.73038 v 38.81047 c 0,1.4627 -1.26352,2.73038 -2.7214,2.73038"
       id="path3392"
       style="clip-rule:evenodd;fill:#0dce93;fill-rule:evenodd;stroke-width:0.749999" /><path
       class="st23"
       d="m 248.95675,539.66155 h -27.79707 c -1.06913,0 -1.94386,-0.87763 -1.94386,-1.95027 v -40.37069 c 0,-1.07265 0.87473,-1.95027 1.94386,-1.95027 h 27.79707 c 1.06912,0 1.94385,0.87762 1.94385,1.95027 v 40.37069 c 0,1.07264 -0.87473,1.95027 -1.94385,1.95027"
       id="path3394"
       style="clip-rule:evenodd;fill:#0fac7c;fill-rule:evenodd;stroke-width:0.749999" /><path
       class="st24"
       d="m 346.14933,495.39032 h -30.90724 c -1.3607,0 -2.52701,-1.17017 -2.52701,-2.53536 v -39.20052 c 0,-1.36519 1.16631,-2.53535 2.52701,-2.53535 h 30.90724 c 1.36069,0 2.52701,1.17016 2.52701,2.53535 v 39.20052 c 0.0972,1.36519 -1.06912,2.53536 -2.52701,2.53536"
       id="path3396"
       style="clip-rule:evenodd;fill:#316de6;fill-rule:evenodd;stroke-width:0.749999" /><path
       class="st6"
       d="m 140.78141,516.45328 c 2.91578,-1.17017 4.76243,-2.63287 7.09506,-5.07071 l -3.20736,-2.53536 c -0.87473,0.87763 -6.99786,0.58508 -6.12313,1.26768 1.84666,1.4627 0.68035,2.63287 -0.97192,3.31547 -3.11017,1.85275 -4.0821,-6.43591 -11.9547,-4.09558 -5.24839,1.56022 -7.6782,6.53342 -6.02594,11.21407 1.65228,4.68066 7.19226,7.02099 12.44066,5.36326 3.11016,-0.97513 4.66524,-3.51049 4.95682,-6.33839 0.19439,-2.73039 0.48596,-1.75525 3.79051,-3.12044"
       id="path3398"
       style="clip-rule:evenodd;fill:#158bc2;fill-rule:evenodd;stroke-width:0.749999" /><path
       class="st6"
       d="m 186.46193,485.24889 c -1.65228,2.34033 6.51189,10.82402 11.27433,17.16242 4.76244,6.33839 8.55295,5.36325 10.59399,3.60801 2.04105,-1.65774 2.23543,-6.72845 -2.33262,-11.40911 -4.56805,-4.68066 -17.88344,-11.70164 -19.5357,-9.36132"
       id="path3400"
       style="clip-rule:evenodd;fill:#158bc2;fill-rule:evenodd;stroke-width:0.749999" /><path
       class="st6"
       d="m 148.07085,450.63153 c 7.38664,0 8.84453,4.87568 13.70416,4.87568 4.85962,0 6.99787,-4.87568 14.19011,-4.87568 11.56592,0 19.04975,24.86599 19.04975,38.51791 0,17.45496 -14.77328,29.1566 -32.94828,29.1566 -18.17501,0 -32.94829,-11.70164 -32.94829,-29.1566 0,-20.67291 8.74734,-38.51791 18.95255,-38.51791"
       id="path3402"
       style="clip-rule:evenodd;fill:#158bc2;fill-rule:evenodd;stroke-width:0.749999" /><path
       class="st7"
       d="m 196.18118,496.36546 c -0.58315,1.07264 1.94385,2.43783 4.27647,5.46076 2.23543,3.02293 4.17928,3.60802 4.76244,2.53536 0.58315,-1.07265 -0.48596,-3.12044 -2.81859,-5.16823 -2.42981,-1.95028 -5.73436,-3.90055 -6.22032,-2.82789"
       id="path3404"
       style="clip-rule:evenodd;fill:#ffffff;fill-rule:evenodd;stroke-width:0.749999" /><path
       class="st7"
       d="m 130.3818,524.93698 c 1.94385,0 3.59613,-1.56022 3.59613,-3.60802 0,-3.608 -7.09506,-3.80303 -7.09506,0.48758 0,2.04778 1.55509,3.12044 3.49893,3.12044"
       id="path3406"
       style="clip-rule:evenodd;fill:#ffffff;fill-rule:evenodd;stroke-width:0.749999" /><path
       class="st6"
       d="m 137.76844,489.34447 c 0.87473,-2.73038 -9.2333,-8.58121 -15.45362,-13.35938 -6.22032,-4.77817 -9.71925,-2.82789 -11.17715,-0.58508 -1.45788,2.24282 -0.38876,7.02098 5.34559,10.33645 5.63718,3.12044 20.31325,6.33839 21.28518,3.60801"
       id="path3408"
       style="clip-rule:evenodd;fill:#158bc2;fill-rule:evenodd;stroke-width:0.749999" /><path
       class="st7"
       d="m 114.831,478.71547 c 0.48595,-0.48756 0.38876,-1.4627 -0.1944,-2.04778 -0.48595,-0.58508 -1.36068,-0.6826 -1.74946,-0.0975 -0.48597,0.48757 -0.38877,1.46271 0.19438,2.04779 0.48597,0.48757 1.26351,0.58508 1.74948,0.0975 m 11.76029,7.60607 c 0.87474,-0.87762 -2.72139,-0.19503 -8.06698,-4.77817 -1.94385,-1.65773 -2.6242,-2.63287 -3.49893,-2.04779 -0.38878,0.29255 -1.16631,1.26769 1.45788,3.51049 2.7214,2.14531 9.1361,4.1931 10.10803,3.31547 z"
       id="path3410"
       style="clip-rule:evenodd;fill:#ffffff;fill-rule:evenodd;stroke-width:0.749999" /><path
       class="st8"
       d="m 163.42728,517.03836 c 16.23116,0 29.35216,-13.16434 29.35216,-29.44914 0,-29.64417 -58.50993,-31.10687 -58.50993,4.29061 0,16.28479 12.92661,25.15853 29.15777,25.15853"
       id="path3412"
       style="clip-rule:evenodd;fill:#289bcd;fill-rule:evenodd;stroke-width:0.749999" /><path
       class="st9"
       d="m 163.62167,483.78618 c 4.95681,0.29255 6.70629,2.1453 8.94172,0.39006 2.23543,-1.75525 -1.4579,-8.38618 -8.45577,-8.87374 -7.09505,-0.39006 -11.37153,5.65579 -9.52486,7.80109 1.84666,2.1453 3.98489,0.39006 9.03891,0.68259"
       id="path3414"
       style="clip-rule:evenodd;fill:#003c6a;fill-rule:evenodd;stroke-width:0.749999" /><path
       class="st6"
       d="m 168.67568,477.74033 c -1.2635,-0.87761 -2.81858,-1.56022 -4.66524,-1.65772 -1.94385,-0.0975 -3.59613,0.39005 -4.95683,1.07264 0,1.56022 2.6242,2.53536 4.76244,1.65774 2.04105,1.17016 4.76243,0.48756 4.85963,-1.07266"
       id="path3416"
       style="clip-rule:evenodd;fill:#158bc2;fill-rule:evenodd;stroke-width:0.749999" /><path
       class="st7"
       d="m 163.62167,483.2011 c 3.20735,0.19503 4.95681,0.97514 6.51189,1.07266 0,0 0,-0.0975 0,-0.0975 0.0972,-1.17017 -0.77753,-2.1453 -1.74946,-2.1453 -0.38877,0 -0.68035,0.0975 -0.97192,0.19502 -0.29158,-0.68259 -0.97193,-1.17016 -1.84666,-1.26767 -0.77755,0 -1.3607,0.29254 -1.84666,0.78011 -0.38877,-0.58508 -0.97192,-0.97514 -1.74947,-1.07266 -0.87473,-0.0975 -1.65228,0.39006 -1.94385,1.07266 -0.29158,-0.19503 -0.58316,-0.29255 -0.97193,-0.39005 -1.06911,-0.0975 -1.94384,0.78011 -2.04104,1.95027 0,0 0,0.0975 0,0.0975 1.45789,0.19503 3.30454,-0.39006 6.6091,-0.19503"
       id="path3418"
       style="clip-rule:evenodd;fill:#ffffff;fill-rule:evenodd;stroke-width:0.749999" /><path
       class="st10"
       d="m 188.50296,499.09584 c 0.68035,0.0975 1.3607,-0.39006 1.55508,-1.17016 0.1944,-0.78011 -0.0972,-1.46272 -0.77753,-1.56022 -0.68035,-0.0975 -1.3607,0.39005 -1.55508,1.17016 -0.19439,0.78011 0.19438,1.4627 0.77753,1.56022 m -25.95042,9.06878 c -5.73435,-1.17017 -7.48382,4.38811 -0.29157,6.14336 9.1361,2.24282 21.96553,-3.70552 25.85322,-11.89667 1.06912,-2.14531 -0.58315,-3.02293 -2.33261,-0.78011 -4.85964,5.94834 -13.60697,8.48369 -23.22904,6.53342 z"
       id="path3420"
       style="clip-rule:evenodd;fill:#eef7f8;fill-rule:evenodd;stroke-width:0.749999" /><path
       class="st9"
       d="m 178.58933,496.56048 c 2.91577,0.0975 5.24839,-2.1453 5.34559,-5.07071 0.0972,-2.92541 -2.13825,-5.26574 -5.05402,-5.36326 -2.91578,-0.0975 -5.2484,2.1453 -5.34559,5.07071 -0.0972,2.82791 2.13824,5.26574 5.05402,5.36326"
       id="path3422"
       style="clip-rule:evenodd;fill:#003c6a;fill-rule:evenodd;stroke-width:0.749999" /><path
       class="st10"
       d="m 181.01914,494.90275 c 0.77753,0 1.45788,-0.58509 1.45788,-1.4627 0,-0.78011 -0.58315,-1.46272 -1.45788,-1.46272 -0.77755,0 -1.4579,0.58509 -1.4579,1.46272 0,0.7801 0.58317,1.4627 1.4579,1.4627"
       id="path3424"
       style="clip-rule:evenodd;fill:#eef7f8;fill-rule:evenodd;stroke-width:0.749999" /><path
       class="st9"
       d="m 147.19612,496.17043 c 2.91578,0.0975 5.2484,-2.1453 5.34559,-5.07071 0.0972,-2.92541 -2.13823,-5.26574 -5.05401,-5.36326 -2.91578,-0.0975 -5.2484,2.1453 -5.34559,5.07071 -0.0972,2.8279 2.13823,5.26574 5.05401,5.36326"
       id="path3426"
       style="clip-rule:evenodd;fill:#003c6a;fill-rule:evenodd;stroke-width:0.749999" /><path
       class="st10"
       d="m 149.62593,494.61021 c 0.77755,0 1.4579,-0.58508 1.4579,-1.46271 0,-0.78011 -0.58316,-1.4627 -1.4579,-1.4627 -0.77753,0 -1.45788,0.58508 -1.45788,1.4627 0,0.6826 0.58315,1.36519 1.45788,1.46271"
       id="path3428"
       style="clip-rule:evenodd;fill:#eef7f8;fill-rule:evenodd;stroke-width:0.749999" /><path
       class="st25"
       d="m 195.30645,551.75325 h 47.52717 c 1.65227,0 3.01296,-1.36519 3.01296,-3.02293 v -42.41847 c 0,-1.65772 -1.36069,-3.02292 -3.01296,-3.02292 h -47.52717 c -1.65228,0 -3.01298,1.3652 -3.01298,3.02292 v 42.41847 c 0,1.65774 1.3607,3.02293 3.01298,3.02293"
       id="path3430"
       style="clip-rule:evenodd;fill:#3f609d;fill-rule:evenodd;stroke-width:0.749999" /><path
       class="st11"
       d="m 208.33025,551.75325 h 34.30899 c 1.74946,0 3.20734,-1.46271 3.20734,-3.21796 V 506.6044 c 0,-1.75525 -1.45788,-3.21796 -3.20734,-3.21796 h -34.2118 c -1.74946,0 -3.20735,1.46271 -3.20735,3.21796 v 41.93089 c -0.0972,1.75525 1.3607,3.21796 3.11016,3.21796"
       id="path3432"
       style="clip-rule:evenodd;fill:#466baf;fill-rule:evenodd;stroke-width:0.749999" /><polygon
       class="st7"
       points="116.4,19.1 116.4,35.7 107.2,37.3 "
       id="polygon3434"
       transform="matrix(0.97192578,0,0,-0.97513721,110.45732,551.75327)"
       style="clip-rule:evenodd;fill:#ffffff;fill-rule:evenodd;stroke-width:0.770392" /><polygon
       class="st7"
       points="107.2,38.9 131.9,38.9 116.4,43.5 "
       id="polygon3436"
       transform="matrix(0.97192578,0,0,-0.97513721,110.45732,551.75327)"
       style="clip-rule:evenodd;fill:#ffffff;fill-rule:evenodd;stroke-width:0.770392" /><polygon
       class="st7"
       points="118,6.8 118,35.7 131.9,37.3 "
       id="polygon3438"
       transform="matrix(0.97192578,0,0,-0.97513721,110.45732,551.75327)"
       style="clip-rule:evenodd;fill:#ffffff;fill-rule:evenodd;stroke-width:0.770392" /><path
       class="st7"
       d="m 228.44912,483.29862 3.98489,-2.53536 3.98489,-2.53535 c 0.29158,-0.19503 0.48597,-0.48758 0.48597,-0.87763 v 0 -4.19308 -3.90055 c 0,-0.48758 -0.29158,-0.78012 -0.68035,-0.97515 l -3.8877,-1.65773 -3.9849,-1.65774 c -0.29157,-0.0975 -0.68035,-0.0975 -0.97192,0.0975 v 0 l -3.98489,2.53536 -3.98491,2.53536 c -0.29157,0.19502 -0.48595,0.48757 -0.48595,0.87762 v 0 3.90055 4.19309 c 0,0.48757 0.29157,0.78011 0.68034,0.97513 l 3.8877,1.65774 3.9849,1.65773 c 0.29158,0.0975 0.68035,0 0.97193,-0.0975 z m 2.81858,-4.19309 -3.49893,2.24282 -3.49893,-1.46271 -3.30456,-1.4627 v -3.5105 -3.31546 l 3.49894,-2.24282 3.49893,-2.24282 3.49893,1.46271 3.30456,1.46271 v 3.21794 3.60802 z m -9.23329,-1.07265 2.72138,-1.75525 3.11017,-1.95027 c 0.29158,-0.19503 0.38877,-0.48757 0.38877,-0.6826 v 0 -3.31547 -2.34033 l -0.19438,-0.0975 -1.55508,0.97514 v 1.3652 2.8279 l -2.7214,1.75524 -2.04104,1.36519 v 1.75525 z m 3.40173,-12.48176 -0.77753,-0.39006 -3.11017,-1.36519 c -0.29158,-0.0975 -0.58316,-0.0975 -0.77754,0.0975 v 0 l -3.11016,1.95027 -3.11016,1.95028 c -0.29158,0.19502 -0.38877,0.48756 -0.38877,0.68259 v 0 3.02293 3.31546 c 0,0.39006 0.19438,0.6826 0.58315,0.78011 l 3.01297,1.26769 0.58316,0.19502 v -1.85276 l -2.42982,-1.07265 v -2.73038 -2.53537 l 2.7214,-1.75524 2.72139,-1.75525 2.42981,1.07265 z m -8.94172,8.09364 1.4579,-0.97514 0.29158,-0.19503 v -1.65772 l -1.06913,0.68259 -0.68035,0.48757 z m 4.17929,-5.16823 v -0.39006 -1.26767 l -1.45789,0.87762 v 0.39005 1.26769 z m -2.04104,-4.09558 -0.68035,-0.29253 -2.13824,-0.87763 c -0.19439,-0.0975 -0.48596,-0.0975 -0.68035,0.0975 v 0 l -2.33262,1.56022 -2.33262,1.56021 c -0.19439,0.0975 -0.29157,0.39006 -0.29157,0.58509 v 0 2.34033 2.53535 c 0,0.29255 0.19438,0.58508 0.48595,0.6826 l 2.04104,0.87762 0.77755,0.29255 v -1.56022 l -0.19438,-0.0975 -1.65228,-0.68259 v -2.04779 -1.95028 l 1.84666,-1.46271 2.04105,-1.26767 1.55508,0.68259 z"
       id="path3442"
       style="clip-rule:evenodd;fill:#ffffff;fill-rule:evenodd;stroke-width:0.749999" /><polygon
       class="st26"
       points="171.4,66 174.1,66 176.7,66 178,68.3 179.4,70.6 178,72.9 176.7,75.2 174.1,75.2 171.4,75.2 170.1,72.9 168.8,70.6 170.1,68.3 "
       id="polygon3444"
       transform="matrix(0.97192578,0,0,-0.97513721,110.45732,551.75327)"
       style="clip-rule:evenodd;fill:#373737;fill-rule:evenodd;stroke-width:0.770392" /><polygon
       class="st27"
       points="172.1,67.2 174.1,67.2 176,67.2 177,68.9 178,70.6 177,72.3 176,74 174.1,74 172.1,74 171.1,72.3 170.1,70.6 171.1,68.9 "
       id="polygon3446"
       transform="matrix(0.97192578,0,0,-0.97513721,110.45732,551.75327)"
       style="clip-rule:evenodd;fill:#f8c514;fill-rule:evenodd;stroke-width:0.770392" /><polygon
       class="st26"
       points="160.2,75.5 161.5,73.3 162.8,71 165.5,71 168.1,71 169.5,73.3 170.8,75.5 169.5,77.8 168.1,80.1 165.5,80.1 162.8,80.1 161.5,77.8 "
       id="polygon3448"
       transform="matrix(0.97192578,0,0,-0.97513721,110.45732,551.75327)"
       style="clip-rule:evenodd;fill:#373737;fill-rule:evenodd;stroke-width:0.770392" /><polygon
       class="st28"
       points="161.6,75.5 162.6,73.8 163.5,72.1 165.5,72.1 167.5,72.1 168.4,73.8 169.4,75.5 168.4,77.2 167.5,78.9 165.5,78.9 163.5,78.9 162.6,77.2 "
       id="polygon3450"
       transform="matrix(0.97192578,0,0,-0.97513721,110.45732,551.75327)"
       style="clip-rule:evenodd;fill:#c9dd72;fill-rule:evenodd;stroke-width:0.770392" /><polygon
       class="st26"
       points="162.8,90 161.5,87.7 160.2,85.4 161.5,83.1 162.8,80.9 165.5,80.9 168.1,80.9 169.5,83.1 170.8,85.4 169.5,87.7 168.1,90 165.5,90 "
       id="polygon3452"
       transform="matrix(0.97192578,0,0,-0.97513721,110.45732,551.75327)"
       style="clip-rule:evenodd;fill:#373737;fill-rule:evenodd;stroke-width:0.770392" /><polygon
       class="st29"
       points="163.5,88.8 162.6,87.1 161.6,85.4 162.6,83.7 163.5,82 165.5,82 167.5,82 168.4,83.7 169.4,85.4 168.4,87.1 167.5,88.8 165.5,88.8 "
       id="polygon3454"
       transform="matrix(0.97192578,0,0,-0.97513721,110.45732,551.75327)"
       style="clip-rule:evenodd;fill:#96c83f;fill-rule:evenodd;stroke-width:0.770392" /><polygon
       class="st26"
       points="176.7,95 174.1,95 171.4,95 170.1,92.7 168.8,90.4 170.1,88.1 171.4,85.8 174.1,85.8 176.7,85.8 178,88.1 179.4,90.4 178,92.7 "
       id="polygon3456"
       transform="matrix(0.97192578,0,0,-0.97513721,110.45732,551.75327)"
       style="clip-rule:evenodd;fill:#373737;fill-rule:evenodd;stroke-width:0.770392" /><polygon
       class="st30"
       points="176,93.8 174.1,93.8 172.1,93.8 171.1,92.1 170.1,90.4 171.1,88.7 172.1,87 174.1,87 176,87 177,88.7 178,90.4 177,92.1 "
       id="polygon3458"
       transform="matrix(0.97192578,0,0,-0.97513721,110.45732,551.75327)"
       style="clip-rule:evenodd;fill:#6388c5;fill-rule:evenodd;stroke-width:0.770392" /><polygon
       class="st26"
       points="187.9,85.4 186.6,87.7 185.3,90 182.6,90 180,90 178.7,87.7 177.3,85.4 178.7,83.1 180,80.9 182.6,80.9 185.3,80.9 186.6,83.1 "
       id="polygon3460"
       transform="matrix(0.97192578,0,0,-0.97513721,110.45732,551.75327)"
       style="clip-rule:evenodd;fill:#373737;fill-rule:evenodd;stroke-width:0.770392" /><polygon
       class="st31"
       points="186.6,85.4 185.6,87.1 184.6,88.8 182.6,88.8 180.7,88.8 179.7,87.1 178.7,85.4 179.7,83.7 180.7,82 182.6,82 184.6,82 185.6,83.7 "
       id="polygon3462"
       transform="matrix(0.97192578,0,0,-0.97513721,110.45732,551.75327)"
       style="clip-rule:evenodd;fill:#8062a8;fill-rule:evenodd;stroke-width:0.770392" /><polygon
       class="st26"
       points="185.3,71 186.6,73.3 187.9,75.5 186.6,77.8 185.3,80.1 182.6,80.1 180,80.1 178.7,77.8 177.3,75.5 178.7,73.3 180,71 182.6,71 "
       id="polygon3464"
       transform="matrix(0.97192578,0,0,-0.97513721,110.45732,551.75327)"
       style="clip-rule:evenodd;fill:#373737;fill-rule:evenodd;stroke-width:0.770392" /><polygon
       class="st32"
       points="184.6,72.1 185.6,73.8 186.6,75.5 185.6,77.2 184.6,78.9 182.6,78.9 180.7,78.9 179.7,77.2 178.7,75.5 179.7,73.8 180.7,72.1 182.6,72.1 "
       id="polygon3466"
       transform="matrix(0.97192578,0,0,-0.97513721,110.45732,551.75327)"
       style="clip-rule:evenodd;fill:#f17424;fill-rule:evenodd;stroke-width:0.770392" /><polygon
       class="st26"
       points="171.4,75.9 174.1,75.9 176.7,75.9 178,78.2 179.4,80.5 178,82.8 176.7,85.1 174.1,85.1 171.4,85.1 170.1,82.8 168.8,80.5 170.1,78.2 "
       id="polygon3468"
       transform="matrix(0.97192578,0,0,-0.97513721,110.45732,551.75327)"
       style="clip-rule:evenodd;fill:#373737;fill-rule:evenodd;stroke-width:0.770392" /><polygon
       class="st33"
       points="172.1,77.1 174.1,77.1 176,77.1 177,78.8 178,80.5 177,82.2 176,83.9 174.1,83.9 172.1,83.9 171.1,82.2 170.1,80.5 171.1,78.8 "
       id="polygon3470"
       transform="matrix(0.97192578,0,0,-0.97513721,110.45732,551.75327)"
       style="clip-rule:evenodd;fill:#e8232a;fill-rule:evenodd;stroke-width:0.770392" /><path
       class="st7"
       d="m 297.45585,507.77456 c 0.58315,0.19503 0.77753,0.68259 1.94385,0.68259 1.06911,0 1.2635,-0.48756 1.94385,-0.7801 0.68034,0.29254 5.53998,3.12043 5.63717,3.41298 h -15.16204 c 0.48596,-0.39005 4.85962,-2.92541 5.63717,-3.31547 m 11.27433,6.43591 v 6.63093 c -2.04104,0.87762 -1.74946,1.56022 -1.84665,3.21795 l -5.73437,3.31546 c 0.0972,-0.58508 1.4579,-2.82789 1.84666,-3.41297 0.58316,-1.07266 1.16632,-2.04779 1.94385,-3.31547 0.38877,-0.6826 3.49894,-6.24087 3.79051,-6.4359 z m -16.9115,9.84888 c 0.0972,-1.85276 -0.48597,-2.63287 -1.84666,-3.12044 v -6.63093 c 0.38876,0.19502 5.2484,8.97126 5.73435,9.75137 0.29159,0.48757 1.74948,2.8279 1.84667,3.31546 -0.48597,-0.19502 -5.15121,-2.92541 -5.73436,-3.31546 z m -0.68035,-10.53148 c 0.19438,-0.19503 0.29158,-0.39006 0.38877,-0.58509 0.0972,-0.19502 0.19438,-0.58508 0.48596,-0.68259 h 14.96766 c 0.19438,0.58509 0.29158,0.68259 0.58315,1.17017 -0.19438,0.68259 -6.99786,12.28673 -7.48382,13.06683 h -1.55508 z m 5.73436,14.9196 -5.63717,-3.31547 c -0.77754,0.29254 -0.87474,0.87762 -2.23543,0.68259 -1.55508,-0.19502 -2.6242,-1.95027 -1.94385,-3.608 0.38877,-0.78011 0.87473,-0.97514 1.65228,-1.36519 v -6.63093 c -1.84666,-0.78011 -2.42982,-2.24282 -1.55508,-3.70552 0.29157,-0.58508 0.97192,-1.07266 1.74946,-1.17017 1.2635,-0.19502 1.55508,0.39006 2.33262,0.68259 l 5.73437,-3.31546 c -0.48597,-3.31547 2.91577,-4.09558 4.37366,-2.34033 0.58316,0.6826 0.58316,1.36519 0.48596,2.43785 1.16631,0.48756 4.95682,3.02292 5.73436,3.21794 3.30455,-2.82789 6.5119,2.73039 2.42982,4.1931 v 6.72844 c 2.91578,0.97514 2.13823,4.58315 -0.0972,4.9732 -1.26349,0.19503 -1.55508,-0.39005 -2.33262,-0.6826 l -5.73436,3.31547 c 0,1.07265 0.0972,1.56022 -0.48596,2.34033 -0.48597,0.48757 -1.06912,0.97513 -1.94385,0.97513 -0.97193,0 -1.55508,-0.48756 -1.94385,-0.97513 -0.58316,-0.87762 -0.48597,-1.3652 -0.58316,-2.43784 z"
       id="path3474"
       style="clip-rule:evenodd;fill:#ffffff;fill-rule:evenodd;stroke-width:0.749999" /><path
       class="st7"
       d="m 330.20974,487.00414 c -0.58315,-0.0975 -1.84665,-0.78011 -2.42981,-1.07266 l -6.99787,-3.41297 c -0.97192,-0.48757 -1.45788,-0.58508 -1.74946,-1.75525 l -1.94385,-8.5812 c -0.58315,-2.43785 -0.77755,-2.53536 0.29158,-3.99807 l 5.44278,-6.72845 c 0.48596,-0.68259 0.97193,-1.4627 1.74946,-1.75525 0.77755,-0.29253 8.45576,-0.19502 10.30241,-0.19502 2.7214,0 2.04105,-0.19503 4.27648,2.63287 l 4.66524,5.7533 c 0.48597,0.58509 1.16631,1.26769 0.97193,2.43785 -0.19438,0.97514 -0.38877,1.95028 -0.68035,2.82791 -0.48596,1.85275 -0.87473,3.80302 -1.2635,5.65579 -0.68035,3.02292 -0.38877,2.73038 -3.01297,3.99806 l -6.99786,3.41298 c -0.87474,0.39006 -1.55508,0.87762 -2.62421,0.78011 z m -0.29157,-6.63093 c -1.06913,-0.0975 -2.04104,-0.39006 -2.91578,-0.78011 -1.06912,-0.58508 -1.36069,-0.87763 -2.13824,-1.56022 -0.29158,0.19503 -0.38877,-0.0975 -1.3607,0.87762 -0.19438,0.19503 -0.97191,1.17016 -1.45788,0.48757 -0.48596,-0.6826 0.38877,-1.07265 0.77754,-1.36519 0.77754,-0.48757 0.77754,-0.39005 1.06912,-0.97514 0.0972,-0.19502 0,0.0975 0.0972,-0.19502 -0.38877,-0.68261 -0.77754,-1.46271 -0.97193,-2.34033 -0.29157,-1.26769 -0.19438,-1.85277 -0.19438,-3.12044 -0.0972,0 -0.0972,-0.0975 -0.19439,-0.0975 -0.0972,-0.0975 -0.0972,0 -0.0972,-0.0975 -0.0972,-0.0975 -0.0972,-0.0975 -0.38878,-0.19503 -0.77754,-0.19502 -2.42982,0 -2.23543,-1.07265 0.19438,-0.87763 1.45789,-0.0975 2.33262,0.0975 0.48597,0.0975 0.48597,-0.0975 0.87474,0 0.38876,-1.65774 1.94384,-3.51051 3.49893,-4.38813 -0.19439,-0.6826 0.0972,-0.39005 -0.0972,-0.87762 -0.29158,-0.58509 -0.77755,-1.17017 -0.87473,-1.3652 -0.29159,-0.78011 0.77753,-1.85275 1.36069,0.0975 0.58315,1.65773 0.58315,0.87762 0.87473,1.4627 1.06912,-0.19502 1.55509,-0.48756 2.81859,-0.48756 1.16631,0 1.74946,0.19503 2.81859,0.48756 l 0.29157,-0.29253 c 0.29158,-0.19503 0.38876,-0.6826 0.58316,-1.17017 0.19438,-0.48757 0.38877,-1.46271 1.1663,-1.07265 0.97193,0.58508 -0.68035,1.85276 -0.68035,2.63287 0,0.29254 0,0.19503 0,0.48757 0.97193,0.39005 2.33263,1.95027 2.81859,3.02293 0.19439,0.39005 0.38877,0.97513 0.58315,1.36519 0.48597,0.19502 1.06912,0.0975 1.65228,-0.19503 0.29158,-0.0975 0.48597,-0.29254 0.87473,-0.29254 0.68035,-0.0975 0.97193,0.68259 0.38877,1.07265 -0.19438,0.19503 -0.58315,0.19503 -0.87473,0.19503 -0.97193,0.0975 -0.97193,0.0975 -1.45788,0.39005 l -0.19439,0.0975 c 0,1.26767 0.0972,1.85276 -0.19439,3.12044 -0.19439,0.58508 -0.68035,1.95027 -1.06912,2.24281 0.0972,0.29255 0.0972,0.0975 0.19439,0.39005 0.0972,0.39006 0.38877,0.48758 0.97193,0.78011 0.38876,0.19503 1.2635,0.58509 0.87473,1.36519 -0.38877,0.78011 -1.2635,-0.19502 -1.74947,-0.68259 -0.19438,-0.19502 -0.0972,-0.19502 -0.29158,-0.29254 -0.0972,-0.0975 -0.19438,-0.19503 -0.38876,-0.19503 -0.0972,0 -0.0972,0 -0.29159,-0.0975 -0.0972,0 -0.0972,-0.0975 -0.19438,-0.0975 -0.87473,0.78011 -0.87473,0.87763 -2.13823,1.56022 -0.87473,0.48758 -1.74948,0.6826 -2.81859,0.87763 -0.0972,0.0975 -0.0972,0.19503 -0.19439,0.29254 -0.38876,0.78011 0.19439,1.65773 0,2.34032 -0.0972,0.19503 -0.29158,0.48758 -0.58315,0.39006 -0.87473,0 -0.58316,-1.07265 -0.48596,-1.36519 0.0972,-0.39006 0.19438,-0.97514 0,-1.36519 -0.29158,0.0975 -0.29158,0 -0.38877,-0.0975 z m 4.17928,-13.26187 c 0.87473,0.39005 2.13823,1.95027 2.42981,3.12044 -0.68035,0.0975 -1.2635,0.19503 -1.94385,0.39006 -0.48596,0.0975 -1.55508,0.39005 -1.74946,-0.0975 -0.1944,-0.39005 1.1663,-3.21796 1.2635,-3.41298 z m -7.7754,9.84888 c 0.0972,-0.0975 0,0 0.0972,-0.0975 0.0972,-0.0975 0.0972,-0.0975 0.19439,-0.0975 0.0972,-0.0975 0.19438,-0.19503 0.38877,-0.29254 0.19439,-0.19503 0.38877,-0.29255 0.68035,-0.48757 0.19439,-0.0975 1.2635,-0.97514 1.3607,-0.97514 0.77754,-0.19503 0.68034,0.87763 0.77754,1.46271 0,0.68259 0.19438,1.65773 0.0972,2.24281 -1.74947,-0.29254 -2.72139,-0.87762 -3.59612,-1.75525 z m -1.55509,-6.72844 c 0.19439,-0.7801 1.06912,-2.04779 1.65227,-2.53536 0.19439,-0.19503 0.58316,-0.48757 0.77755,-0.58508 0.29157,0.7801 1.36069,2.92542 1.16631,3.31547 -0.19439,0.58508 -1.26351,0.19503 -1.74947,0.19503 -0.38877,-0.0975 -1.55509,-0.19503 -1.84666,-0.39006 z m 10.30242,6.72844 c -0.77755,0.78011 -2.04105,1.56022 -3.59613,1.75525 0,-0.68259 0.0972,-1.4627 0.0972,-2.1453 0,-0.68259 -0.0972,-1.85276 0.77755,-1.56022 0.0972,0.0975 2.52699,1.85277 2.72139,1.95027 z M 324.37819,471.792 c 0.29158,0 1.55508,0.39006 1.84666,0.48757 0.87473,0.29254 1.65228,0.29254 1.55508,0.97513 0,0.29255 -0.97193,0.97514 -1.2635,1.26769 l -0.68035,0.58508 c -0.19438,0.19503 -0.38877,0.39005 -0.68035,0.58508 -0.19438,-0.58508 -0.48596,-0.97514 -0.68035,-1.65774 -0.0972,-0.78011 -0.0972,-1.4627 -0.0972,-2.24281 z m 12.53784,0 c 0.0972,1.26768 -0.19438,3.12044 -0.87473,3.90055 -0.0972,-0.0975 -2.42982,-2.1453 -2.527,-2.43785 -0.1944,-0.68259 0.68034,-0.68259 1.45788,-0.97513 0.58315,-0.0975 1.3607,-0.39006 1.94385,-0.48757 z m -8.26137,-5.46077 c 2.42981,-0.48757 1.55508,-0.39006 3.98489,0 l -1.36068,2.43784 c -0.77755,1.3652 -1.16631,0.29254 -1.74948,-0.78011 -0.19438,-0.39005 -0.68035,-1.17016 -0.87473,-1.65773 z m 1.4579,7.02099 c 0,0 -0.38878,-0.48757 -0.48597,-0.58508 -0.0972,-0.19503 0,-0.58508 0.0972,-0.87763 0.0972,-0.39005 0.19439,-0.29253 0.58316,-0.48756 0.38877,-0.19503 0.38877,-0.19503 0.77754,0 0.29158,0.19503 0.48596,0.0975 0.58316,0.48756 0.0972,0.39006 0.19438,0.58508 0,0.87763 -0.0972,0.0975 -0.38877,0.48756 -0.48597,0.58508 -0.19438,0.0975 -0.97193,0.0975 -1.06911,0 z"
       id="path3476"
       style="clip-rule:evenodd;fill:#ffffff;fill-rule:evenodd;stroke-width:0.749999" /></g></svg>
