<?xml version="1.0" encoding="UTF-8" standalone="no"?>
<!-- Created with Inkscape (http://www.inkscape.org/) -->

<svg
   version="1.1"
   id="svg3589"
   xml:space="preserve"
   width="1309.8644"
   height="142.1248"
   viewBox="0 0 1309.8644 142.12481"
   sodipodi:docname="platform-docs.svg"
   inkscape:version="1.1 (c4e8f9e, 2021-05-24)"
   xmlns:inkscape="http://www.inkscape.org/namespaces/inkscape"
   xmlns:sodipodi="http://sodipodi.sourceforge.net/DTD/sodipodi-0.dtd"
   xmlns="http://www.w3.org/2000/svg"
   xmlns:svg="http://www.w3.org/2000/svg"><defs
     id="defs3593"><clipPath
       clipPathUnits="userSpaceOnUse"
       id="clipPath3603"><path
         d="M 0,1000 H 1000 V 0 H 0 Z"
         id="path3601" /></clipPath><clipPath
       clipPathUnits="userSpaceOnUse"
       id="clipPath3615"><path
         d="m 117.695,454.28 h 260.533 v -7.577 H 117.695 Z"
         id="path3613" /></clipPath></defs><sodipodi:namedview
     id="namedview3591"
     pagecolor="#ffffff"
     bordercolor="#666666"
     borderopacity="1.0"
     inkscape:pageshadow="2"
     inkscape:pageopacity="0.0"
     inkscape:pagecheckerboard="0"
     showgrid="false"
     inkscape:zoom="0.56475003"
     inkscape:cx="812.74895"
     inkscape:cy="-7.0827796"
     inkscape:window-width="1377"
     inkscape:window-height="982"
     inkscape:window-x="2046"
     inkscape:window-y="25"
     inkscape:window-maximized="0"
     inkscape:current-layer="g3595" /><g
     id="g3595"
     inkscape:groupmode="layer"
     inkscape:label="new glooys 2 Platform"
     transform="matrix(1.3333333,0,0,-1.3333333,-144.32544,737.72918)"><path
       id="path3607"
       style="fill:#003c6a;fill-opacity:1;fill-rule:evenodd;stroke:none;stroke-width:0.999998"
       d="m 454.72505,524.64309 c -1.534,0 -2.81622,-0.51687 -3.84522,-1.54687 -1.032,-1.033 -1.54834,-2.31322 -1.54834,-3.84522 v -54.62989 c 0,-1.53399 0.50093,-2.81621 1.50293,-3.84521 1.002,-1.032 2.23791,-1.54834 3.71192,-1.54834 1.53199,0 2.81367,0.51634 3.84667,1.54834 1.029,1.029 1.54688,2.31122 1.54688,3.84521 V 519.251 c 0,1.532 -0.50193,2.81222 -1.50293,3.84522 -1.003,1.03 -2.24092,1.54687 -3.71191,1.54687 z m -34.57178,-2.65283 c -5.834,0 -11.22381,-1.42813 -16.17481,-4.28613 -4.95099,-2.86 -8.86883,-6.71859 -11.75683,-11.57959 -2.88801,-4.863 -4.33155,-10.18055 -4.33155,-15.95655 0,-5.776 1.44354,-11.09501 4.33155,-15.95801 2.888,-4.86099 6.80584,-8.72012 11.75683,-11.57812 4.951,-2.859 10.34081,-4.28907 16.17481,-4.28907 6.896,0 13.22935,1.79756 19.00634,5.39356 1.82601,1.119 2.74073,2.70946 2.74073,4.77246 v 18.74121 c 0,1.532 -0.50193,2.81322 -1.50293,3.84522 -1.003,1.03 -2.26781,1.54687 -3.7998,1.54687 h -14.49903 c -1.532,0 -2.81521,-0.50093 -3.84522,-1.50293 -1.03099,-1.002 -1.54687,-2.26827 -1.54687,-3.80127 0,-1.534 0.51588,-2.7978 1.54687,-3.7998 1.03001,-1.002 2.31322,-1.50293 3.84522,-1.50293 h 8.30859 v -11.49316 c -1.413,-0.471 -3.0637,-0.85344 -4.9497,-1.14844 -1.886,-0.296 -3.6532,-0.43945 -5.3042,-0.43945 -3.772,0 -7.24769,0.95609 -10.42969,2.87109 -3.182,1.915 -5.70013,4.49337 -7.55713,7.73437 -1.856,3.239 -2.78613,6.7764 -2.78613,10.6084 0,3.831 0.93013,7.36494 2.78613,10.60694 1.857,3.24 4.37513,5.81837 7.55713,7.73437 3.182,1.914 6.65769,2.87256 10.42969,2.87256 3.418,0 6.71834,-0.67674 9.90234,-2.03174 1.059,-0.474 2.03397,-0.70752 2.91797,-0.70752 1.414,0 2.60562,0.54423 3.57861,1.63623 0.973,1.088 1.45899,2.37122 1.45899,3.84522 0,0.882 -0.22158,1.70812 -0.66357,2.47412 -0.44201,0.766 -1.1048,1.38442 -1.9878,1.85742 -4.302,2.356 -9.37154,3.53467 -15.20654,3.53467 z m 69.49365,-14.58545 c -4.479,0 -8.54476,-1.0477 -12.19775,-3.1377 -3.65501,-2.093 -6.54255,-5.00897 -8.66456,-8.75097 -2.121,-3.742 -3.18017,-7.97202 -3.18017,-12.68702 0,-4.715 1.05917,-8.94308 3.18017,-12.68408 2.12201,-3.74199 5.00955,-6.64503 8.66456,-8.70703 3.65299,-2.062 7.71875,-3.09522 12.19775,-3.09522 4.42101,0 8.47028,1.03322 12.15528,3.09522 3.68199,2.062 6.58503,4.96504 8.70703,8.70703 2.12,3.741 3.18311,7.96908 3.18311,12.68408 0,4.715 -1.06311,8.94502 -3.18311,12.68702 -2.122,3.742 -5.02504,6.65797 -8.70703,8.75097 -3.685,2.09 -7.73427,3.1377 -12.15528,3.1377 z m 51.72363,0 c -4.47799,0 -8.54575,-1.0477 -12.19775,-3.1377 -3.655,-2.093 -6.54255,-5.00897 -8.66455,-8.75097 -2.121,-3.742 -3.18164,-7.97202 -3.18164,-12.68702 0,-4.715 1.06064,-8.94308 3.18164,-12.68408 2.122,-3.74199 5.00955,-6.64503 8.66455,-8.70703 3.652,-2.062 7.71976,-3.09522 12.19775,-3.09522 4.42101,0 8.47174,1.03322 12.15675,3.09522 3.681,2.062 6.58403,4.96504 8.70702,8.70703 2.12001,3.741 3.18018,7.96908 3.18018,12.68408 0,4.715 -1.06017,8.94502 -3.18018,12.68702 -2.12299,3.742 -5.02602,6.65797 -8.70702,8.75097 -3.68501,2.09 -7.73574,3.1377 -12.15675,3.1377 z m -51.72363,-9.7251 c 2.475,0 4.73019,-0.61749 6.76319,-1.85449 2.03299,-1.238 3.65328,-2.99226 4.86328,-5.26026 1.206,-2.27 1.81054,-4.84884 1.81054,-7.73584 0,-2.886 -0.60454,-5.45042 -1.81054,-7.69043 -1.21,-2.23899 -2.83029,-3.97584 -4.86328,-5.21484 -2.033,-1.237 -4.28819,-1.85595 -6.76319,-1.85595 -2.475,0 -4.72772,0.61895 -6.76172,1.85595 -2.032,1.239 -3.65582,2.97585 -4.86182,5.21484 -1.209,2.24001 -1.812,4.80443 -1.812,7.69043 0,2.887 0.603,5.46584 1.812,7.73584 1.206,2.268 2.82982,4.02226 4.86182,5.26026 2.034,1.237 4.28672,1.85449 6.76172,1.85449 z m 51.72363,0 c 2.47601,0 4.73019,-0.61749 6.76319,-1.85449 2.032,-1.238 3.65182,-2.99226 4.86181,-5.26026 1.206,-2.27 1.81202,-4.84884 1.81202,-7.73584 0,-2.886 -0.60602,-5.45042 -1.81202,-7.69043 -1.20999,-2.23899 -2.82981,-3.97584 -4.86181,-5.21484 -2.033,-1.237 -4.28718,-1.85595 -6.76319,-1.85595 -2.47399,0 -4.72771,0.61895 -6.76171,1.85595 -2.033,1.239 -3.65582,2.97585 -4.86182,5.21484 -1.209,2.24001 -1.81201,4.80443 -1.81201,7.69043 0,2.887 0.60301,5.46584 1.81201,7.73584 1.206,2.268 2.82882,4.02226 4.86182,5.26026 2.034,1.237 4.28772,1.85449 6.76171,1.85449 z m 39.7339,-6.39111 c -0.0239,-0.0452 -0.0532,-0.10288 -0.0776,-0.14942 0.004,-0.0657 -10e-4,-0.13067 0.002,-0.19629 0.0143,0.0378 0.0593,0.10237 0.0688,0.13477 0.0133,0.0454 -2.2e-4,0.14746 0.007,0.21094 z m -1.50147,-29.15479 c 10e-4,-0.0889 -0.007,-0.13858 -0.005,-0.23145 0.003,-0.37944 0.0742,-0.78909 0.10693,-1.17919 0.32276,-0.2463 0.63018,-0.47277 1.03125,-0.75 0.003,0.003 0.007,0.003 0.0103,0.006 0.0257,0.0257 0.0327,0.0614 0.0571,0.0879 -0.19653,0.52096 -0.3659,1.04988 -0.54932,1.57764 -0.262,0.18816 -0.37508,0.29495 -0.65185,0.48926 z" /><text
       xml:space="preserve"
       style="font-style:normal;font-weight:normal;font-size:84px;line-height:1.25;font-family:sans-serif;letter-spacing:-2.25px;fill:#003c6a;fill-opacity:1;stroke:none;stroke-width:0.75"
       x="570.39551"
       y="-461.66345"
       id="text8820"
       transform="scale(1,-1)"><tspan
         id="tspan8818"
         style="font-style:normal;font-variant:normal;font-weight:normal;font-stretch:normal;font-size:84px;font-family:Quicksand;-inkscape-font-specification:Quicksand;fill:#003c6a;fill-opacity:1;stroke-width:0.75"
         x="570.39551"
         y="-461.66345"
         sodipodi:role="line">Platform Docs</tspan></text><g
       id="g3609"><g
         id="g3611" /><g
         id="g3623"><g
           clip-path="url(#clipPath3615)"
           opacity="0.300003"
           id="g3621"><g
             transform="translate(247.9629,454.2803)"
             id="g3619"><path
               d="M 0,0 C 71.94,0 130.265,-1.696 130.265,-3.788 130.265,-5.88 71.94,-7.577 0,-7.577 c -71.945,0 -130.268,1.697 -130.268,3.789 C -130.268,-1.696 -71.945,0 0,0"
               style="fill:#003c6a;fill-opacity:1;fill-rule:evenodd;stroke:none"
               id="path3617" /></g></g></g></g><g
       id="g3625"
       transform="translate(350.5996,495.8818)"><path
         d="m 0,0 h -44.687 c -1.539,0 -2.797,-1.259 -2.797,-2.797 v -39.796 c 0,-1.54 1.258,-2.798 2.797,-2.798 H 0 c 1.54,0 2.798,1.258 2.798,2.798 V -2.797 C 2.798,-1.259 1.54,0 0,0"
         style="fill:#c32972;fill-opacity:1;fill-rule:evenodd;stroke:none"
         id="path3627" /></g><g
       id="g3629"
       transform="translate(295.9658,495.8818)"><path
         d="m 0,0 h -46.015 c -1.538,0 -2.797,-1.259 -2.797,-2.797 v -39.796 c 0,-1.54 1.259,-2.798 2.797,-2.798 H 0 c 1.539,0 2.798,1.258 2.798,2.798 V -2.797 C 2.798,-1.259 1.539,0 0,0"
         style="fill:#96c83f;fill-opacity:1;fill-rule:evenodd;stroke:none"
         id="path3631" /></g><g
       id="g3633"
       transform="translate(241.5176,495.8818)"><path
         d="m 0,0 h -45.722 c -1.539,0 -2.798,-1.259 -2.798,-2.797 v -39.796 c 0,-1.54 1.259,-2.798 2.798,-2.798 H 0 c 1.538,0 2.797,1.258 2.797,2.798 V -2.797 C 2.797,-1.259 1.538,0 0,0"
         style="fill:#bc4797;fill-opacity:1;fill-rule:evenodd;stroke:none"
         id="path3635" /></g><g
       id="g3637"
       transform="translate(320.04,541.2725)"><path
         d="m 0,0 h -44.595 c -1.539,0 -2.797,-1.259 -2.797,-2.799 v -39.794 c 0,-1.539 1.258,-2.798 2.797,-2.798 H 0 c 1.538,0 2.798,1.259 2.798,2.798 V -2.799 C 2.798,-1.259 1.538,0 0,0"
         style="fill:#3f609d;fill-opacity:1;fill-rule:evenodd;stroke:none"
         id="path3639" /></g><g
       id="g3641"
       transform="translate(241.6914,495.8818)"><path
         d="m 0,0 h -34.498 c -1.444,0 -2.624,-1.18 -2.624,-2.623 v -40.144 c 0,-1.443 1.18,-2.624 2.624,-2.624 H 0 c 1.443,0 2.623,1.181 2.623,2.624 V -2.623 C 2.623,-1.18 1.443,0 0,0"
         style="fill:#e251b5;fill-opacity:1;fill-rule:evenodd;stroke:none"
         id="path3643" /></g><g
       id="g3645"
       transform="translate(265.0742,495.8818)"><path
         d="m 0,0 h -15.807 c -1.162,0 -2.113,-0.951 -2.113,-2.113 v -41.163 c 0,-1.162 0.951,-2.115 2.113,-2.115 H 0 c 1.163,0 2.114,0.953 2.114,2.115 V -2.113 C 2.114,-0.951 1.163,0 0,0"
         style="fill:#87b439;fill-opacity:1;fill-rule:evenodd;stroke:none"
         id="path3647" /></g><g
       id="g3649"
       transform="translate(319.4702,541.2725)"><path
         d="m 0,0 h -33.711 c -1.854,0 -3.368,-1.516 -3.368,-3.368 v -38.653 c 0,-1.854 1.514,-3.37 3.368,-3.37 H 0 c 1.853,0 3.368,1.516 3.368,3.37 V -3.368 C 3.368,-1.516 1.853,0 0,0"
         style="fill:#466baf;fill-opacity:1;fill-rule:evenodd;stroke:none"
         id="path3651" /></g><g
       id="g3653"
       transform="translate(265.8076,541.2725)"><path
         d="m 0,0 h -42.922 c -1.54,0 -2.799,-1.259 -2.799,-2.799 v -39.794 c 0,-1.539 1.259,-2.798 2.799,-2.798 H 0 c 1.54,0 2.798,1.259 2.798,2.798 V -2.799 C 2.798,-1.259 1.54,0 0,0"
         style="fill:#8c72b1;fill-opacity:1;fill-rule:evenodd;stroke:none"
         id="path3655" /></g><g
       id="g3657"
       transform="translate(250.7187,541.2725)"><path
         d="m 0,0 h -28.619 c -1.108,0 -2.012,-0.907 -2.012,-2.013 v -41.366 c 0,-1.106 0.904,-2.012 2.012,-2.012 H 0 c 1.106,0 2.012,0.906 2.012,2.012 V -2.013 C 2.012,-0.907 1.106,0 0,0"
         style="fill:#8062a8;fill-opacity:1;fill-rule:evenodd;stroke:none"
         id="path3659" /></g><g
       id="g3661"
       transform="translate(350.7827,495.8818)"><path
         d="m 0,0 h -31.797 c -1.438,0 -2.616,-1.176 -2.616,-2.615 v -40.159 c 0,-1.441 1.178,-2.617 2.616,-2.617 H 0 c 1.438,0 2.615,1.176 2.615,2.617 V -2.615 C 2.615,-1.176 1.438,0 0,0"
         style="fill:#df0296;fill-opacity:1;fill-rule:evenodd;stroke:none"
         id="path3663" /></g><g
       id="g3665"
       transform="translate(139.4351,517.4375)"><path
         d="M 0,0 C 2.968,-1.236 4.902,-2.74 7.3,-5.237 L 4,-7.744 c -0.877,0.912 -7.22,0.576 -6.28,1.31 1.877,1.465 0.699,2.745 -0.997,3.45 -3.203,1.871 -4.197,-6.631 -12.329,-4.184 -5.438,1.639 -7.861,6.715 -6.198,11.484 1.663,4.768 7.395,7.227 12.803,5.492 C -5.757,8.766 -4.179,6.184 -3.941,3.32 -3.698,0.391 -3.406,1.416 0,0"
         style="fill:#54acd5;fill-opacity:1;fill-rule:evenodd;stroke:none"
         id="path3667" /></g><g
       id="g3669"
       transform="translate(186.4829,485.5234)"><path
         d="m 0,0 c -1.676,2.443 6.736,11.072 11.596,17.568 4.858,6.498 8.815,5.482 10.919,3.739 C 24.618,19.562 24.837,14.44 20.084,9.611 15.334,4.783 1.675,-2.441 0,0"
         style="fill:#54acd5;fill-opacity:1;fill-rule:evenodd;stroke:none"
         id="path3671" /></g><g
       id="g3673"
       transform="translate(146.9106,449.9971)"><path
         d="M 0,0 C 7.623,0 9.072,4.971 14.113,5.011 19.152,5.052 21.342,0 28.695,0 40.583,0 48.32,25.525 48.32,39.497 c 0,17.9 -15.176,29.947 -33.899,29.947 -18.724,0 -33.902,-12.047 -33.902,-29.947 C -19.481,18.313 -10.435,0 0,0"
         style="fill:#54acd5;fill-opacity:1;fill-rule:evenodd;stroke:none"
         id="path3675" /></g><g
       id="g3677"
       transform="translate(196.396,496.8359)"><path
         d="M 0,0 C -0.585,1.082 2.025,2.508 4.369,5.623 6.712,8.735 8.646,9.321 9.233,8.24 9.819,7.156 8.78,4.998 6.358,2.945 3.939,0.895 0.586,-1.082 0,0"
         style="fill:#ffffff;fill-opacity:1;fill-rule:evenodd;stroke:none"
         id="path3679" /></g><g
       id="g3681"
       transform="translate(128.7729,526.2246)"><path
         d="m 0,0 c 2.034,0 3.682,-1.648 3.682,-3.682 0,-3.705 -7.34,-3.891 -7.34,0.536 C -3.658,-1.113 -2.032,0 0,0"
         style="fill:#ffffff;fill-opacity:1;fill-rule:evenodd;stroke:none"
         id="path3683" /></g><g
       id="g3685"
       transform="translate(136.3374,489.6309)"><path
         d="m 0,0 c 0.945,-2.809 -9.503,-8.813 -15.95,-13.738 -6.446,-4.924 -9.978,-2.866 -11.526,-0.616 -1.547,2.253 -0.358,7.241 5.53,10.588 5.89,3.35 21,6.573 21.946,3.766"
         style="fill:#54acd5;fill-opacity:1;fill-rule:evenodd;stroke:none"
         id="path3687" /></g><g
       id="g3689"
       transform="translate(124.7964,486.54)"><path
         d="m 0,0 c 0.887,-0.887 -2.798,-0.243 -8.274,-4.892 -1.954,-1.661 -2.655,-2.711 -3.623,-2.068 -0.415,0.277 -1.236,1.279 1.536,3.554 C -7.589,-1.131 -0.983,0.981 0,0 m -12.067,-7.808 c 0.452,-0.531 0.375,-1.456 -0.169,-2.064 -0.544,-0.609 -1.352,-0.673 -1.805,-0.143 -0.45,0.531 -0.376,1.455 0.169,2.064 0.546,0.608 1.352,0.673 1.805,0.143"
         style="fill:#ffffff;fill-opacity:1;fill-rule:evenodd;stroke:none"
         id="path3691" /></g><g
       id="g3693"
       transform="translate(162.7817,518.0957)"><path
         d="m 0,0 c 16.687,0 30.216,-13.527 30.216,-30.215 0,-30.397 -60.243,-31.938 -60.243,4.387 C -30.027,-9.141 -16.688,0 0,0"
         style="fill:#5bbae0;fill-opacity:1;fill-rule:evenodd;stroke:none"
         id="path3695" /></g><g
       id="g3697"
       transform="translate(162.8984,484.0059)"><path
         d="m 0,0 c 5.117,0.31 6.889,2.221 9.229,0.371 2.342,-1.848 -1.474,-8.648 -8.747,-9.086 -7.27,-0.441 -11.746,5.79 -9.777,7.967 C -7.325,1.43 -5.113,-0.309 0,0"
         style="fill:#003c6a;fill-opacity:1;fill-rule:evenodd;stroke:none"
         id="path3699" /></g><g
       id="g3701"
       transform="translate(168.146,477.8125)"><path
         d="m 0,0 c -1.266,-0.891 -2.899,-1.551 -4.828,-1.666 -1.996,-0.121 -3.737,0.367 -5.111,1.139 0.017,1.558 2.742,2.56 4.883,1.659 C -2.938,2.291 -0.143,1.582 0,0"
         style="fill:#54acd5;fill-opacity:1;fill-rule:evenodd;stroke:none"
         id="path3703" /></g><g
       id="g3705"
       transform="translate(162.9336,483.416)"><path
         d="M 0,0 C 3.349,0.203 5.149,1.037 6.664,1.127 6.667,1.101 6.668,1.074 6.671,1.047 6.74,-0.119 5.921,-1.12 4.84,-1.185 4.49,-1.206 4.155,-1.127 3.86,-0.971 3.544,-1.687 2.833,-2.211 1.977,-2.262 1.22,-2.307 0.532,-1.975 0.106,-1.432 -0.251,-2.021 -0.895,-2.436 -1.65,-2.481 -2.522,-2.533 -3.304,-2.084 -3.698,-1.39 -3.983,-1.605 -4.328,-1.739 -4.702,-1.762 -5.784,-1.828 -6.717,-0.934 -6.789,0.235 -6.79,0.27 -6.792,0.303 -6.793,0.337 -5.277,0.396 -3.35,-0.202 0,0"
         style="fill:#ffffff;fill-opacity:1;fill-rule:evenodd;stroke:none"
         id="path3707" /></g><g
       id="g3709"
       transform="translate(161.8213,508.9863)"><path
         d="M 0,0 C -5.903,-1.209 -7.738,4.484 -0.274,6.287 9.076,8.545 22.354,2.448 26.335,-5.943 27.396,-8.179 25.738,-9.018 23.928,-6.777 18.915,-0.576 9.902,2.03 0,0 m 26.76,-9.275 c 0.662,0.113 1.39,-0.428 1.628,-1.209 0.237,-0.78 -0.104,-1.504 -0.764,-1.616 -0.661,-0.112 -1.39,0.43 -1.628,1.209 -0.239,0.782 0.104,1.504 0.764,1.616"
         style="fill:#eef7f8;fill-opacity:1;fill-rule:evenodd;stroke:none"
         id="path3711" /></g><g
       id="g3713"
       transform="translate(178.3218,497.0479)"><path
         d="m 0,0 c 2.967,0.093 5.447,-2.237 5.539,-5.204 0.093,-2.967 -2.237,-5.447 -5.205,-5.539 -2.966,-0.092 -5.447,2.238 -5.539,5.205 C -5.297,-2.571 -2.968,-0.091 0,0"
         style="fill:#003c6a;fill-opacity:1;fill-rule:evenodd;stroke:none"
         id="path3715" /></g><g
       id="g3717"
       transform="translate(180.8105,495.4023)"><path
         d="M 0,0 C 0.826,0.025 1.518,-0.623 1.545,-1.451 1.571,-2.278 0.921,-2.971 0.093,-2.996 -0.735,-3.021 -1.427,-2.373 -1.453,-1.545 -1.478,-0.717 -0.828,-0.025 0,0"
         style="fill:#eef7f8;fill-opacity:1;fill-rule:evenodd;stroke:none"
         id="path3719" /></g><g
       id="g3721"
       transform="translate(146.0264,496.6836)"><path
         d="M 0,0 C 2.966,0.092 5.447,-2.236 5.539,-5.204 5.631,-8.17 3.301,-10.65 0.335,-10.742 -2.633,-10.835 -5.112,-8.505 -5.204,-5.539 -5.297,-2.572 -2.968,-0.092 0,0"
         style="fill:#003c6a;fill-opacity:1;fill-rule:evenodd;stroke:none"
         id="path3723" /></g><g
       id="g3725"
       transform="translate(148.5146,495.0381)"><path
         d="M 0,0 C 0.828,0.026 1.52,-0.624 1.545,-1.452 1.571,-2.278 0.921,-2.971 0.093,-2.997 -0.734,-3.022 -1.427,-2.372 -1.451,-1.544 -1.477,-0.717 -0.828,-0.025 0,0"
         style="fill:#eef7f8;fill-opacity:1;fill-rule:evenodd;stroke:none"
         id="path3727" /></g><g
       id="g3729"
       transform="translate(196.728,553.2969)"><path
         d="m 0,0 h 48.936 c 1.681,0 3.056,-1.374 3.056,-3.055 v -43.461 c 0,-1.68 -1.375,-3.054 -3.056,-3.054 H 0 c -1.681,0 -3.055,1.374 -3.055,3.054 V -3.055 C -3.055,-1.374 -1.681,0 0,0"
         style="fill:#fbc65f;fill-opacity:1;fill-rule:evenodd;stroke:none"
         id="path3731" /></g><g
       id="g3733"
       transform="translate(210.1724,553.2969)"><path
         d="m 0,0 h 35.25 c 1.813,0 3.297,-1.483 3.297,-3.297 v -42.978 c 0,-1.813 -1.484,-3.295 -3.297,-3.295 H 0 c -1.814,0 -3.298,1.482 -3.298,3.295 V -3.297 C -3.298,-1.483 -1.814,0 0,0"
         style="fill:#fbdd75;fill-opacity:1;fill-rule:evenodd;stroke:none"
         id="path3735" /></g><g
       id="g3737"
       transform="translate(292.3726,508.5068)"><path
         d="M 0,0 7.597,15.11 V 1.385 Z"
         style="fill:#ffffff;fill-opacity:1;fill-rule:evenodd;stroke:none"
         id="path3739" /></g><g
       id="g3741"
       transform="translate(299.9697,503.3789)"><path
         d="M 0,0 -7.597,3.868 H 12.887 Z"
         style="fill:#ffffff;fill-opacity:1;fill-rule:evenodd;stroke:none"
         id="path3743" /></g><g
       id="g3745"
       transform="translate(312.8564,508.5068)"><path
         d="M 0,0 -11.543,25.269 V 1.385 Z"
         style="fill:#ffffff;fill-opacity:1;fill-rule:evenodd;stroke:none"
         id="path3747" /></g><g
       id="g3749"
       transform="translate(219.502,464.0645)"><path
         d="m 0,0 -0.704,-0.3 -2.19,-0.932 c -0.23,-0.098 -0.483,-0.069 -0.679,0.055 H -3.574 L -6.022,0.375 -8.469,1.929 C -8.688,2.068 -8.81,2.305 -8.81,2.548 v 2.391 2.595 c 0,0.322 0.207,0.597 0.496,0.695 l 2.142,0.912 0.801,0.341 V 7.891 L -5.599,7.793 -7.342,7.052 V 4.939 2.951 l 2.107,-1.338 2.123,-1.346 1.61,0.686 z M 2.191,4.218 V 3.81 2.47 L 0.723,3.4 V 3.81 5.15 Z M -2.111,9.536 -0.598,8.575 -0.331,8.407 V 6.67 L -1.383,7.338 -2.111,7.799 Z M 7.006,1.162 6.168,0.807 2.98,-0.552 C 2.704,-0.669 2.401,-0.635 2.166,-0.485 L 2.165,-0.486 -1.024,1.537 -4.213,3.561 c -0.264,0.167 -0.408,0.452 -0.409,0.743 v 3.116 3.381 c 0,0.387 0.249,0.716 0.596,0.833 l 3.13,1.333 0.565,0.242 v -1.912 l -2.53,-1.075 V 7.42 4.786 l 2.779,-1.763 2.8,-1.776 2.486,1.058 z M 3.508,14.006 6.296,12.236 9.484,10.214 C 9.749,10.046 9.893,9.762 9.894,9.471 V 6.089 3.723 L 9.719,3.648 8.132,4.655 v 1.434 2.897 l -2.778,1.765 -2.132,1.351 v 1.782 z m 9.55,1.062 -3.6,2.286 -3.557,-1.515 -3.428,-1.46 V 10.756 7.358 L 6.05,5.089 9.65,2.805 13.207,4.32 16.634,5.779 V 9.064 12.8 Z m -2.954,4.308 4.054,-2.572 4.054,-2.573 c 0.308,-0.195 0.476,-0.528 0.477,-0.867 H 18.69 V 9.064 5.102 C 18.69,4.65 18.399,4.269 17.995,4.13 L 14.009,2.433 9.955,0.705 C 9.633,0.568 9.279,0.61 9.004,0.783 V 0.781 L 4.95,3.354 0.896,5.927 C 0.588,6.123 0.418,6.455 0.418,6.795 v 3.961 4.299 c 0,0.451 0.29,0.835 0.694,0.973 l 3.986,1.698 4.054,1.727 c 0.323,0.137 0.676,0.097 0.951,-0.078 z"
         style="fill:#ffffff;fill-opacity:1;fill-rule:evenodd;stroke:none"
         id="path3751" /></g><g
       id="g3753"
       transform="translate(230.4438,542.9902)"><path
         d="M 0,0 1.324,-2.292 2.648,-4.586 1.324,-6.878 0,-9.17 h -2.646 -2.648 l -1.324,2.292 -1.323,2.294 1.323,2.292 L -5.294,0 h 2.648 z"
         style="fill:#373737;fill-opacity:1;fill-rule:evenodd;stroke:none"
         id="path3755" /></g><g
       id="g3757"
       transform="translate(229.7598,541.8047)"><path
         d="M 0,0 0.982,-1.699 1.964,-3.4 0.982,-5.1 0,-6.8 h -1.962 -1.964 l -0.981,1.7 -0.983,1.702 0.983,1.699 L -3.926,0 h 1.964 z"
         style="fill:#f8c514;fill-opacity:1;fill-rule:evenodd;stroke:none"
         id="path3759" /></g><g
       id="g3761"
       transform="translate(216.582,538.0439)"><path
         d="M 0,0 H 2.647 5.295 L 6.618,-2.292 7.942,-4.586 6.618,-6.878 5.295,-9.171 H 2.647 0 l -1.324,2.292 -1.324,2.293 1.324,2.293 z"
         style="fill:#373737;fill-opacity:1;fill-rule:evenodd;stroke:none"
         id="path3763" /></g><g
       id="g3765"
       transform="translate(217.2661,536.8594)"><path
         d="m 0,0 h 1.963 1.963 l 0.982,-1.701 0.982,-1.7 -0.982,-1.701 -0.982,-1.7 H 1.963 0 l -0.982,1.7 -0.982,1.701 0.982,1.7 z"
         style="fill:#c9dd72;fill-opacity:1;fill-rule:evenodd;stroke:none"
         id="path3767" /></g><g
       id="g3769"
       transform="translate(213.9341,523.5654)"><path
         d="M 0,0 1.324,2.293 2.648,4.585 H 5.295 7.943 L 9.266,2.293 10.59,0 9.266,-2.293 7.943,-4.586 H 5.295 2.648 l -1.324,2.293 z"
         style="fill:#373737;fill-opacity:1;fill-rule:evenodd;stroke:none"
         id="path3771" /></g><g
       id="g3773"
       transform="translate(215.3022,523.5654)"><path
         d="M 0,0 0.981,1.699 1.964,3.4 H 3.927 5.89 L 6.872,1.699 7.853,0 6.872,-1.701 5.89,-3.401 H 3.927 1.964 l -0.983,1.7 z"
         style="fill:#96c83f;fill-opacity:1;fill-rule:evenodd;stroke:none"
         id="path3775" /></g><g
       id="g3777"
       transform="translate(225.1494,514.0332)"><path
         d="M 0,0 -1.323,2.293 -2.646,4.586 -1.323,6.878 0,9.171 H 2.648 5.294 L 6.619,6.878 7.942,4.586 6.619,2.293 5.294,0 H 2.648 Z"
         style="fill:#373737;fill-opacity:1;fill-rule:evenodd;stroke:none"
         id="path3779" /></g><g
       id="g3781"
       transform="translate(225.8335,515.2178)"><path
         d="m 0,0 -0.981,1.7 -0.982,1.701 0.982,1.7 L 0,6.801 H 1.964 3.927 L 4.908,5.101 5.891,3.401 4.908,1.7 3.927,0 H 1.964 Z"
         style="fill:#6388c5;fill-opacity:1;fill-rule:evenodd;stroke:none"
         id="path3783" /></g><g
       id="g3785"
       transform="translate(239.0127,518.9795)"><path
         d="m 0,0 h -2.647 -2.648 l -1.323,2.293 -1.324,2.293 1.324,2.293 1.323,2.292 H -2.647 0 L 1.323,6.879 2.647,4.586 1.323,2.293 Z"
         style="fill:#373737;fill-opacity:1;fill-rule:evenodd;stroke:none"
         id="path3787" /></g><g
       id="g3789"
       transform="translate(238.3286,520.165)"><path
         d="M 0,0 H -1.963 -3.926 L -4.909,1.699 -5.89,3.4 -4.909,5.1 -3.926,6.801 H -1.963 0 L 0.981,5.1 1.963,3.4 0.981,1.699 Z"
         style="fill:#8062a8;fill-opacity:1;fill-rule:evenodd;stroke:none"
         id="path3791" /></g><g
       id="g3793"
       transform="translate(241.6592,533.458)"><path
         d="m 0,0 -1.324,-2.292 -1.322,-2.293 h -2.648 -2.648 l -1.323,2.293 -1.324,2.292 1.324,2.294 1.323,2.292 h 2.648 2.648 l 1.322,-2.292 z"
         style="fill:#373737;fill-opacity:1;fill-rule:evenodd;stroke:none"
         id="path3795" /></g><g
       id="g3797"
       transform="translate(240.2915,533.458)"><path
         d="m 0,0 -0.981,-1.7 -0.982,-1.7 h -1.963 -1.963 l -0.983,1.7 -0.981,1.7 0.981,1.7 0.983,1.701 h 1.963 1.963 L -0.981,1.7 Z"
         style="fill:#f17424;fill-opacity:1;fill-rule:evenodd;stroke:none"
         id="path3799" /></g><g
       id="g3801"
       transform="translate(230.4438,533.0967)"><path
         d="M 0,0 1.324,-2.292 2.648,-4.585 1.324,-6.878 0,-9.17 h -2.646 -2.648 l -1.324,2.292 -1.323,2.293 1.323,2.293 L -5.294,0 h 2.648 z"
         style="fill:#373737;fill-opacity:1;fill-rule:evenodd;stroke:none"
         id="path3803" /></g><g
       id="g3805"
       transform="translate(229.7598,531.9121)"><path
         d="M 0,0 0.982,-1.7 1.964,-3.4 0.982,-5.101 0,-6.801 h -1.962 -1.964 l -0.981,1.7 -0.983,1.701 0.983,1.7 0.981,1.7 h 1.964 z"
         style="fill:#e8232a;fill-opacity:1;fill-rule:evenodd;stroke:none"
         id="path3807" /></g><g
       id="g3809"
       transform="translate(332.502,483.5967)"><path
         d="m 0,0 -5.411,-3.161 c -0.734,0.285 -0.825,0.827 -2.138,0.691 -1.507,-0.156 -2.551,-1.885 -1.841,-3.428 0.359,-0.783 0.84,-0.974 1.597,-1.329 l 0.012,-6.368 c -1.754,-0.705 -2.296,-2.185 -1.51,-3.577 0.31,-0.548 0.903,-1.024 1.678,-1.151 1.199,-0.198 1.504,0.365 2.194,0.655 l 5.478,-3.139 c -0.422,-3.2 2.781,-3.887 4.163,-2.24 0.545,0.65 0.582,1.301 0.483,2.356 1.126,0.459 4.795,2.92 5.516,3.08 3.179,-2.728 6.26,2.623 2.346,4.007 l -0.006,6.395 c 2.84,0.962 2.088,4.374 -0.128,4.724 -1.25,0.198 -1.52,-0.33 -2.212,-0.672 L 4.735,-0.02 C 4.753,0.997 4.846,1.499 4.277,2.179 3.852,2.688 3.275,3.087 2.402,3.091 1.498,3.095 0.884,2.658 0.511,2.192 -0.05,1.494 0.044,1.04 0,0 m -5.547,-14.195 c 0.145,-0.181 0.316,-0.406 0.401,-0.555 0.118,-0.208 0.21,-0.569 0.438,-0.627 l 14.373,0.001 c 0.189,0.58 0.302,0.698 0.595,1.158 -0.16,0.613 -6.696,11.732 -7.147,12.494 l -1.479,0.046 z m 0.67,10.008 c 0.136,-1.806 -0.454,-2.479 -1.755,-3.017 v -6.38 c 0.378,0.162 5.047,8.548 5.53,9.37 0.302,0.513 1.672,2.735 1.769,3.184 -0.468,-0.118 -4.985,-2.775 -5.544,-3.157 m 16.288,-9.41 0.002,6.38 C 9.458,-6.345 9.725,-5.68 9.607,-4.164 l -5.474,3.177 c 0.096,-0.546 1.416,-2.659 1.755,-3.248 0.599,-1.036 1.137,-1.988 1.82,-3.157 0.415,-0.712 3.364,-6.041 3.703,-6.205 M 0.574,-19.778 c 0.606,0.213 0.767,0.676 1.827,0.67 1.001,-0.007 1.216,-0.439 1.828,-0.722 0.622,0.323 5.323,2.962 5.445,3.25 l -14.552,0.039 c 0.449,-0.432 4.673,-2.829 5.452,-3.237"
         style="fill:#ffffff;fill-opacity:1;fill-rule:evenodd;stroke:none"
         id="path3811" /></g></g></svg>
