<?xml version="1.0" encoding="UTF-8" standalone="no"?>
<!-- Generator: Adobe Illustrator 26.5.0, SVG Export Plug-In . SVG Version: 6.00 Build 0)  -->

<svg
   version="1.1"
   id="Layer_1"
   x="0px"
   y="0px"
   viewBox="0 0 870.28866 165.40712"
   xml:space="preserve"
   sodipodi:docname="Solo-Docs-Logo.svg"
   width="870.2887"
   height="165.40712"
   inkscape:version="1.1 (c4e8f9e, 2021-05-24)"
   xmlns:inkscape="http://www.inkscape.org/namespaces/inkscape"
   xmlns:sodipodi="http://sodipodi.sourceforge.net/DTD/sodipodi-0.dtd"
   xmlns="http://www.w3.org/2000/svg"
   xmlns:svg="http://www.w3.org/2000/svg"><defs
   id="defs8930">
	
	
</defs><sodipodi:namedview
   id="namedview8928"
   pagecolor="#ffffff"
   bordercolor="#666666"
   borderopacity="1.0"
   inkscape:pageshadow="2"
   inkscape:pageopacity="0.0"
   inkscape:pagecheckerboard="0"
   showgrid="false"
   inkscape:zoom="0.71737214"
   inkscape:cx="286.4622"
   inkscape:cy="27.879533"
   inkscape:window-width="1754"
   inkscape:window-height="982"
   inkscape:window-x="0"
   inkscape:window-y="25"
   inkscape:window-maximized="0"
   inkscape:current-layer="Layer_1" />
<style
   type="text/css"
   id="style8911">
	.st0{fill:#FFFFFF;}
	.st1{fill-rule:evenodd;clip-rule:evenodd;fill:#158BC2;}
	.st2{fill-rule:evenodd;clip-rule:evenodd;fill:#FFFFFF;}
	.st3{fill:#35393B;}
	.st4{fill-rule:evenodd;clip-rule:evenodd;fill:#35393B;}
	.st5{fill:none;}
</style>
<path
   class="st3"
   d="m 467.80431,34.85356 c 1.5,0 2.9,0.4 4.2,1.1 1.4,0.8 2.5,1.9 3.3,3.3 0.8,1.4 1.2,2.8 1.2,4.4 0,1.5 -0.4,3 -1.2,4.3 -0.8,1.4 -1.9,2.5 -3.3,3.3 -1.3,0.8 -2.8,1.2 -4.3,1.2 -1.6,0 -3,-0.4 -4.4,-1.2 -1.4,-0.8 -2.5,-1.9 -3.3,-3.3 -0.7,-1.3 -1.2,-2.8 -1.2,-4.3 0,-1.5 0.4,-3 1.2,-4.4 0.8,-1.4 1.9,-2.5 3.3,-3.3 1.6,-0.7 3,-1.1 4.5,-1.1 z m 52.5,81.6 c 5.9,0 11,-2.1 15.1,-6.4 4.2,-4.3 6.3,-9.5 6.3,-15.5 0,-6.1 -2,-11.2 -6.3,-15.6 -4.2,-4.2 -9.2,-6.4 -15.1,-6.4 -5.9,0 -11,2.1 -15.1,6.4 -4.2,4.3 -6.3,9.5 -6.3,15.6 0,6 2.1,11.2 6.3,15.5 4.1,4.3 9.1,6.4 15.1,6.4 m -136.6,0 c 5.9,0 11,-2.1 15.1,-6.4 4.2,-4.3 6.3,-9.5 6.3,-15.5 0,-6.1 -2,-11.2 -6.3,-15.6 -4.2,-4.2 -9.2,-6.4 -15.1,-6.4 -5.9,0 -11,2.1 -15.1,6.4 -4.2,4.3 -6.3,9.5 -6.3,15.6 0,6 2.1,11.2 6.3,15.5 4.2,4.3 9.2,6.4 15.1,6.4 z m -105.3,0 c 5.9,0 11,-2.1 15.1,-6.4 4.2,-4.3 6.3,-9.5 6.3,-15.5 0,-6.1 -2,-11.2 -6.3,-15.6 -4.2,-4.2 -9.2,-6.4 -15.1,-6.4 -5.9,0 -11,2.1 -15.1,6.4 -4.2,4.3 -6.3,9.5 -6.3,15.6 0,6 2.1,11.2 6.3,15.5 4.1,4.3 9.1,6.4 15.1,6.4 z m 159.6,-3.3 c 1.5,0 2.9,0.4 4.2,1.1 1.4,0.8 2.5,1.9 3.3,3.3 0.8,1.4 1.2,2.8 1.2,4.4 0,1.5 -0.4,3 -1.2,4.3 -0.8,1.4 -1.9,2.5 -3.3,3.3 -1.3,0.8 -2.8,1.2 -4.3,1.2 -1.6,0 -3,-0.4 -4.4,-1.2 -1.4,-0.8 -2.5,-1.9 -3.3,-3.3 -0.7,-1.3 -1.2,-2.8 -1.2,-4.3 0,-1.5 0.4,-3 1.2,-4.4 0.8,-1.4 1.9,-2.5 3.3,-3.3 1.6,-0.7 3,-1.1 4.5,-1.1 z m 82.3,-54.9 c 9.9,0 18.3,3.6 25.2,10.7 7,7.1 10.4,15.7 10.4,25.6 0,9.9 -3.5,18.5 -10.4,25.5 -6.9,7 -15.3,10.6 -25.2,10.6 -9.9,0 -18.3,-3.6 -25.2,-10.6 -7,-7.1 -10.5,-15.6 -10.5,-25.5 0,-10 3.5,-18.5 10.5,-25.6 6.9,-7 15.3,-10.7 25.2,-10.7 z m -52.5,0 c 2,0 3.7,0.7 5,2.1 1.4,1.4 2.1,3.1 2.1,5.1 v 58.1 c 0,2 -0.7,3.7 -2.1,5 -1.4,1.4 -3.1,2.1 -5,2.1 -2,0 -3.6,-0.7 -5,-2.1 -1.4,-1.4 -2.1,-3.1 -2.1,-5 v -58.1 c 0,-2 0.7,-3.7 2.1,-5 1.4,-1.4 3.1,-2.2 5,-2.2 z m -84.1,0 c 9.9,0 18.3,3.6 25.2,10.7 7,7.1 10.4,15.7 10.4,25.6 0,9.9 -3.5,18.5 -10.5,25.5 -6.9,7 -15.3,10.6 -25.2,10.6 -9.9,0 -18.3,-3.6 -25.2,-10.6 -7,-7.1 -10.5,-15.6 -10.5,-25.5 0,-10 3.5,-18.5 10.5,-25.6 7.1,-7 15.4,-10.7 25.3,-10.7 z m -105.3,0 c 9.9,0 18.3,3.6 25.2,10.7 7,7.1 10.4,15.7 10.4,25.6 0,9.9 -3.5,18.5 -10.4,25.5 -6.9,7 -15.3,10.6 -25.2,10.6 -9.9,0 -18.3,-3.6 -25.2,-10.6 -7,-7.1 -10.5,-15.6 -10.5,-25.5 0,-10 3.5,-18.5 10.5,-25.6 6.9,-7 15.3,-10.7 25.2,-10.7 z m 52.7,-23.6 c 2,0 3.7,0.7 5,2.1 1.4,1.4 2.1,3.1 2.1,5 v 81.8 c 0,1.9 -0.7,3.6 -2.1,5 -1.4,1.3 -3.1,2 -5,2 -2,0 -3.7,-0.7 -5.1,-2.1 -1.4,-1.4 -2.1,-3.1 -2.1,-5 v -81.6 c 0,-2 0.7,-3.7 2.1,-5 1.4,-1.4 3.1,-2.2 5.1,-2.2 z m -115.7,96 c -5.1,0 -9.8,-1.6 -14,-4.4 -3.6,-2.4 -6.6,-5.4 -8.9,-9.1 -1,-1.7 -1.3,-3.5 -0.8,-5.3 0.4,-1.9 1.5,-3.4 3.1,-4.5 1.7,-1 3.5,-1.3 5.4,-0.8 1.9,0.5 3.4,1.5 4.4,3.2 1.1,1.9 2.7,3.4 4.5,4.6 1.9,1.3 3.9,2.2 6.2,2.2 2.3,0 4.4,-0.7 6.2,-2.3 1.6,-1.4 2.5,-3 2.5,-5.2 0,-1.7 -0.4,-3.4 -1.9,-4.4 -1.9,-1.4 -6.5,-2.7 -8.8,-3.3 -4.4,-1.2 -9.7,-3 -13.4,-5.6 -5.3,-3.8 -7.6,-9.2 -7.6,-15.7 0,-6.1 2.4,-11.2 6.8,-15.4 4.5,-4.3 10,-6.3 16.2,-6.3 4.5,0 8.7,1.2 12.6,3.5 3.8,2.3 6.6,5.5 8.4,9.5 0.8,1.8 0.9,3.6 0.2,5.5 -0.7,1.8 -2,3.2 -3.7,4 -1.7,0.8 -3.6,0.9 -5.4,0.2 -1.8,-0.7 -3.2,-1.9 -4,-3.7 -0.7,-1.5 -1.8,-2.6 -3.1,-3.4 -1.5,-0.9 -3.2,-1.3 -5,-1.3 -2.4,0 -4.4,0.7 -6.2,2.3 -1.6,1.4 -2.4,3.1 -2.4,5.2 0,1.7 0.4,3.3 1.7,4.3 1.9,1.4 6.5,2.6 8.8,3.3 4.3,1.2 9.8,3 13.5,5.6 5.3,3.9 7.6,9.4 7.6,15.8 0,6.1 -2.3,11.2 -6.7,15.4 -4.5,4.1 -10,6.1 -16.2,6.1 z"
   id="path8913" /><g
   id="g8923"
   transform="translate(0.00431351,-0.04823252)">
		
			<circle
   transform="matrix(0.1616,-0.9869,0.9869,0.1616,-12.2817,151.0041)"
   class="st1"
   cx="82.699997"
   cy="82.699997"
   id="ellipse8915"
   r="82.699997" />
		<g
   id="g8919">
			<path
   class="st2"
   d="m 65.5,131.6 c 9.5,0 11.3,-6.2 17.6,-6.2 6.3,0.1 8.1,6.2 17.6,6.2 10.7,0 20.1,-15.3 23.2,-35.4 1.4,2.4 2.7,4.9 3.8,7.1 4.5,9 9.6,8.7 12.6,7 3,-1.7 4.4,-7.9 -0.4,-14.9 C 137,91.2 130.4,85.2 125,81.6 124.6,59.8 106.1,45.2 83.2,45 c -7.4,0.1 -14.4,1.6 -20.5,4.5 -0.9,0.4 -2.4,0.4 -3,-0.4 C 58,46.8 56,45.4 54.1,44.4 52.8,43.7 51.7,43.2 51.7,42 c 0,-1.1 -0.1,-2.3 -0.5,-3.4 -1.8,-5.3 -7.8,-8.3 -13.1,-6.5 -5.3,1.8 -7.8,7.6 -6,12.9 1.8,5.3 7.5,8.1 12.8,6.4 1.1,-0.4 2.1,-0.9 3,-1.6 0.9,-0.7 1.5,-0.9 2.8,-0.9 1.8,0 6.2,3.7 3.7,5.9 -7.5,6.6 -12.6,15.4 -12.9,26.3 -5.5,3.4 -12.6,9.8 -15.6,14.2 -4.8,7 -3.3,13.2 -0.4,14.9 3,1.7 8,2 12.6,-7 1.3,-2.5 2.8,-5.3 4.3,-8 2.6,20.6 12.3,36.4 23.1,36.4"
   id="path8917" />
		</g>
		<path
   class="st1"
   d="m 118.1,69.5 c 0.8,-0.1 1.7,0.5 2,1.5 0.3,1 -0.1,1.9 -1,2 -0.8,0.1 -1.8,-0.5 -2,-1.5 -0.3,-0.9 0.2,-1.8 1,-2 M 84.4,57.9 C 77,59.4 74.7,52.3 84.1,50 c 11.8,-2.8 28.5,4.8 33.5,15.4 1.3,2.8 -0.8,3.9 -3,1 -6.4,-7.8 -17.7,-11.1 -30.2,-8.5 z"
   id="path8921" />
	</g>
<text
   xml:space="preserve"
   style="font-style:normal;font-weight:normal;font-size:128px;line-height:1.25;font-family:sans-serif;fill:#158bc2;fill-opacity:1;stroke:none"
   x="574.32269"
   y="126.86356"
   id="text9145"><tspan
     sodipodi:role="line"
     id="tspan9143"
     x="574.32269"
     y="126.86356"
     style="font-style:normal;font-variant:normal;font-weight:bold;font-stretch:normal;font-size:128px;font-family:Quicksand;-inkscape-font-specification:'Quicksand Bold';fill:#158bc2;fill-opacity:1">Docs</tspan></text></svg>
