<svg xmlns="http://www.w3.org/2000/svg" width="159" height="38.675" viewBox="0 0 159 38.675">
  <g id="Solo-Docs-Logo" transform="translate(-92 -7.977)">
    <g id="Group_23090" data-name="Group 23090" transform="translate(92 7.977)">
      <path id="Path_36809" data-name="Path 36809" d="M130.17,34.546a3.645,3.645,0,0,0,2.712-1.146,4.009,4.009,0,0,0,0-5.575,3.781,3.781,0,0,0-5.424,0,4.009,4.009,0,0,0,0,5.575,3.639,3.639,0,0,0,2.712,1.146m-24.5,0A3.645,3.645,0,0,0,108.38,33.4a4.009,4.009,0,0,0,0-5.575,3.781,3.781,0,0,0-5.424,0,4.009,4.009,0,0,0,0,5.575,3.639,3.639,0,0,0,2.712,1.146Zm-18.9,0A3.643,3.643,0,0,0,89.478,33.4a4.01,4.01,0,0,0,0-5.575,3.782,3.782,0,0,0-5.424,0,4.009,4.009,0,0,0,0,5.575,3.64,3.64,0,0,0,2.715,1.146Zm28.643-.586a1.579,1.579,0,0,1,.762.2,1.494,1.494,0,0,1,.594.588,1.553,1.553,0,0,1,0,1.56,1.492,1.492,0,0,1-.584.585,1.555,1.555,0,0,1-1.558,0,1.5,1.5,0,0,1-.583-.584,1.587,1.587,0,0,1-.208-.775,1.612,1.612,0,0,1,.207-.782,1.449,1.449,0,0,1,.6-.594,1.6,1.6,0,0,1,.771-.2Zm14.761-9.847a6.126,6.126,0,0,1,4.52,1.915,6.55,6.55,0,0,1,0,9.174,6.322,6.322,0,0,1-9.036,0,6.542,6.542,0,0,1,0-9.174A6.107,6.107,0,0,1,130.17,24.113Zm-9.409,0a1.3,1.3,0,0,1,1.282,1.285V35.832a1.211,1.211,0,0,1-.381.9,1.283,1.283,0,0,1-2.185-.9V25.4a1.3,1.3,0,0,1,1.285-1.285Zm0-4.212a1.578,1.578,0,0,1,.762.2,1.5,1.5,0,0,1,.594.588,1.55,1.55,0,0,1,0,1.559,1.486,1.486,0,0,1-.584.585,1.556,1.556,0,0,1-1.557,0,1.5,1.5,0,0,1-.583-.585,1.588,1.588,0,0,1-.208-.775,1.615,1.615,0,0,1,.207-.782,1.457,1.457,0,0,1,.6-.594,1.6,1.6,0,0,1,.769-.2Zm-15.093,4.212a6.124,6.124,0,0,1,4.52,1.915,6.55,6.55,0,0,1,0,9.174,6.321,6.321,0,0,1-9.035,0,6.541,6.541,0,0,1,0-9.174,6.108,6.108,0,0,1,4.517-1.915Zm-9.447-4.235a1.281,1.281,0,0,1,1.274,1.285V35.832a1.262,1.262,0,0,1-1.273,1.27,1.271,1.271,0,0,1-.912-.37,1.23,1.23,0,0,1-.369-.9V21.163a1.233,1.233,0,0,1,.369-.9,1.251,1.251,0,0,1,.912-.381Zm-9.455,4.235a6.125,6.125,0,0,1,4.52,1.915,6.55,6.55,0,0,1,0,9.174,6.318,6.318,0,0,1-9.033,0,6.542,6.542,0,0,1,0-9.174,6.107,6.107,0,0,1,4.516-1.915ZM75.468,37.1a4.462,4.462,0,0,1-2.518-.794,5.307,5.307,0,0,1-1.588-1.637,1.21,1.21,0,0,1-.151-.955,1.25,1.25,0,0,1,1.531-.957,1.234,1.234,0,0,1,.793.574,2.763,2.763,0,0,0,.816.824,1.992,1.992,0,0,0,1.117.39,1.6,1.6,0,0,0,1.108-.408,1.167,1.167,0,0,0,.449-.925.929.929,0,0,0-.335-.8,6.015,6.015,0,0,0-1.574-.594,7.835,7.835,0,0,1-2.405-1.01A3.279,3.279,0,0,1,71.349,28a3.657,3.657,0,0,1,1.218-2.755,4.091,4.091,0,0,1,2.9-1.133,4.229,4.229,0,0,1,2.257.634,3.882,3.882,0,0,1,1.511,1.7,1.278,1.278,0,0,1-1.6,1.734,1.256,1.256,0,0,1-.724-.669,1.381,1.381,0,0,0-.555-.613,1.755,1.755,0,0,0-.891-.233,1.632,1.632,0,0,0-1.117.406,1.187,1.187,0,0,0-.437.928.917.917,0,0,0,.308.769,6.575,6.575,0,0,0,1.579.584,7.929,7.929,0,0,1,2.416,1.014,3.332,3.332,0,0,1,1.363,2.843,3.663,3.663,0,0,1-1.207,2.76,4.1,4.1,0,0,1-2.9,1.131Z" transform="translate(-32.767 -9.152)" fill="#35393b"/>
      <path id="Path_36810" data-name="Path 36810" d="M14.334,1.056C15.036.049,15.718-.3,16.16.285a7.415,7.415,0,0,0,5.577,3,7.415,7.415,0,0,0,5.577-3c.442-.587,1.122-.236,1.826.771,3.234,4.629,3.674,9.2,1.642,12.336,3.993,4.052,2.882,9.6,1.447,12.278-.616,1.149-.857,1.063-1.538.446-.212-.191-.457-.414-.733-.666a18.161,18.161,0,0,1-1.313,3.636C27.816,30.835,26,31.132,25.9,29.07H17.575c-.1,2.062-1.916,1.765-2.745.017a18.161,18.161,0,0,1-1.313-3.636c-.276.251-.521.475-.733.666-.682.616-.922.7-1.538-.446C9.811,22.994,8.7,17.444,12.693,13.391,10.661,10.253,11.1,5.685,14.334,1.056" transform="translate(-4.573 0)" fill="#0eb1e4"/>
      <path id="Path_36811" data-name="Path 36811" d="M24.785,3.289a7.415,7.415,0,0,0,5.577-3c.442-.587,1.122-.236,1.826.771,3.234,4.629,3.674,9.2,1.641,12.336,3.993,4.052,2.882,9.6,1.447,12.278-.616,1.149-.857,1.062-1.538.446-.212-.191-.457-.414-.733-.666a18.158,18.158,0,0,1-1.313,3.636c-.829,1.749-2.644,2.045-2.745-.017H24.785V17.053c0-.356.216-.631-1.079-.788-3.043-.369-5.891-2.244-6.853-4.92a4.974,4.974,0,0,1-.3-1.683,3.439,3.439,0,0,1,1.433-2.824,3.727,3.727,0,0,1,5.337,1.007,8.568,8.568,0,0,1,.831,3.491c.047.435.083.9.159,1.327.035.2.091.486.3.581.112.054.039.035.166.035Z" transform="translate(-7.623 0)" fill="#158bc2"/>
      <path id="Path_36812" data-name="Path 36812" d="M23.977,59.327c-.095.212-.357,1.589-.677,1.795-1.159.746-4.533-7.547-4.755-8.472a89.954,89.954,0,0,1,14.318-.009c-.216.907-3.586,9.234-4.758,8.478-.32-.206-.583-1.583-.678-1.795-.169.508-.879,3.66-1.814,3.445-.914-.21-1.419-2.79-1.637-3.445" transform="translate(-8.538 -24.106)" fill="#0eb1e4"/>
      <path id="Path_36813" data-name="Path 36813" d="M26.039,52.364c2.565,0,5.131.091,7.161.281a22.538,22.538,0,0,1-.806,2.146l0,.013-.006.014-.006.014-.006.014-.006.014-.006.014-.006.014-.012.029-.006.014-.006.014-.006.014-.006.014,0,.009v.005L32.307,55l-.006.014-.006.014-.006.014-.006.014-.006.014-.006.014-.012.029-.006.015-.006.015-.006.014v0l0,.01-.006.015-.006.014-.012.029-.006.015-.012.029-.006.015-.006.015-.006.015-.006.015-.006.015-.006.014-.006.015-.006.015-.058.134-.005.012v0l-.007.015-.006.015-.026.06-.006.015-.026.06L32,55.721c-1.148,2.633-2.8,5.882-3.555,5.4-.32-.207-.583-1.583-.678-1.8-.162.492-.834,3.462-1.727,3.454V55.627c0-.45-.054-1.065-1.156-1.039a50.892,50.892,0,0,0-5.088.462c-.143-.327-.4-.983-.521-1.282a58.291,58.291,0,0,1,6.754-.385h.011Z" transform="translate(-8.875 -24.108)" fill="#158bc2"/>
      <path id="Path_36814" data-name="Path 36814" d="M24.789,19.951a9.335,9.335,0,0,0,1.314-.094c3.2-.457,6.907-2.794,6.907-6.386a3.44,3.44,0,0,0-1.433-2.824,3.726,3.726,0,0,0-5.337,1.008,8.568,8.568,0,0,0-.832,3.491c-.047.435-.083.9-.158,1.327-.036.2-.091.486-.3.58-.112.054-.039.035-.166.035s-.054.018-.166-.035c-.206-.1-.262-.378-.3-.58-.076-.432-.111-.891-.159-1.327a8.582,8.582,0,0,0-.831-3.491A3.726,3.726,0,0,0,18,10.647a3.44,3.44,0,0,0-1.433,2.824,4.974,4.974,0,0,0,.3,1.683c1.1,3.068,4.83,4.8,7.927,4.8" transform="translate(-7.626 -4.572)" fill="#fff"/>
      <path id="Path_36815" data-name="Path 36815" d="M31.807,19.951a9.332,9.332,0,0,0,1.314-.094c3.2-.457,6.907-2.794,6.907-6.386a3.44,3.44,0,0,0-1.433-2.824,3.726,3.726,0,0,0-5.337,1.008,8.568,8.568,0,0,0-.832,3.491c-.047.435-.083.9-.158,1.327-.036.2-.091.486-.3.58-.112.054-.039.035-.166.035Z" transform="translate(-14.643 -4.573)" fill="#ddf4f9"/>
      <path id="Path_36816" data-name="Path 36816" d="M23.514,13.936a1.572,1.572,0,1,1-1.572,1.572,1.572,1.572,0,0,1,1.572-1.572m7.5,0a1.572,1.572,0,1,1-1.111.46,1.572,1.572,0,0,1,1.111-.46Z" transform="translate(-10.102 -6.416)" fill="#35393b"/>
      <path id="Path_36817" data-name="Path 36817" d="M22.165,15.19a.455.455,0,1,1-.455.455.455.455,0,0,1,.455-.455m7.528,0a.456.456,0,1,1-.455.455.455.455,0,0,1,.455-.455m-4.278,8.8a4.258,4.258,0,0,0-4.256,4.141q-.1-.006-.2-.006a3.042,3.042,0,0,0,0,6.084h8.9a3.042,3.042,0,0,0,0-6.084,2.979,2.979,0,0,0-2.092.777,3.522,3.522,0,0,1,1.762-1.724,4.26,4.26,0,0,0-4.122-3.189" transform="translate(-8.251 -6.993)" fill="#fff"/>
      <path id="Path_36818" data-name="Path 36818" d="M1,46.891a2.32,2.32,0,0,1,1.616-1.943c.486.366.978.725,1.483,1.066A26.765,26.765,0,0,0,6.519,47.45c1.345.713,1.764,1.133,3.369.886a47.768,47.768,0,0,1,7.316-.554,46.916,46.916,0,0,1,9.161.881,36.029,36.029,0,0,1,7.945,2.512,2.2,2.2,0,0,1-1.042,2.3,33.517,33.517,0,0,0-7.4-2.331,44.4,44.4,0,0,0-8.667-.831,44.405,44.405,0,0,0-8.667.831,33.521,33.521,0,0,0-7.4,2.334,1.766,1.766,0,0,1-1.047-2.3A33.085,33.085,0,0,1,4.31,49.593l.554-.167-.5-.294A34.968,34.968,0,0,1,1,46.891" transform="translate(0 -20.694)" fill="#c18e2e"/>
      <path id="Path_36819" data-name="Path 36819" d="M1.188,47.641a2.556,2.556,0,0,1,.449-1.114,33.726,33.726,0,0,0,4.948,3.268l-1.535.382-.5-.293a34.977,34.977,0,0,1-3.364-2.242m33.048,5.782a1.88,1.88,0,0,1-.781.776,33.516,33.516,0,0,0-7.4-2.331,44.405,44.405,0,0,0-8.667-.831,44.4,44.4,0,0,0-8.667.831A33.522,33.522,0,0,0,1.32,54.2a1.882,1.882,0,0,1-.914-.745C4.3,51.415,10.443,50.1,17.354,50.1c6.87,0,12.981,1.3,16.882,3.327" transform="translate(-0.187 -21.421)" fill="#a96c25"/>
    </g>
    <path id="Path_38201" data-name="Path 38201" d="M3.594,21.164h2.5a5.209,5.209,0,0,0,2.094-.428,5.41,5.41,0,0,0,1.721-1.173,5.5,5.5,0,0,0,1.162-1.721,5.341,5.341,0,0,0,0-4.188,5.454,5.454,0,0,0-2.883-2.883,5.209,5.209,0,0,0-2.094-.428h-2.5Zm2.5-13.648a8.019,8.019,0,0,1,2.182.3,8.426,8.426,0,0,1,1.973.833,8.932,8.932,0,0,1,1.666,1.294A8.579,8.579,0,0,1,13.2,11.6a8.477,8.477,0,0,1,.833,1.962,8.019,8.019,0,0,1,.3,2.182,7.942,7.942,0,0,1-.3,2.182A8.426,8.426,0,0,1,13.2,19.9a8.161,8.161,0,0,1-1.283,1.666A8.179,8.179,0,0,1,8.275,23.7a8.019,8.019,0,0,1-2.182.3H2.18a1.182,1.182,0,0,1-.515-.121,1.57,1.57,0,0,1-.46-.318A1.619,1.619,0,0,1,.886,23.1a1.205,1.205,0,0,1-.121-.526V8.93a1.182,1.182,0,0,1,.121-.515,1.788,1.788,0,0,1,.318-.46,1.57,1.57,0,0,1,.46-.318,1.182,1.182,0,0,1,.515-.121Zm15.643,6.643a3.37,3.37,0,0,0-1.348.274,3.485,3.485,0,0,0-1.118.745,3.557,3.557,0,0,0-.756,1.118,3.384,3.384,0,0,0,0,2.719,3.593,3.593,0,0,0,1.875,1.864,3.358,3.358,0,0,0,2.708,0,3.557,3.557,0,0,0,1.118-.756,3.518,3.518,0,0,0,.745-1.107,3.508,3.508,0,0,0,0-2.719A3.426,3.426,0,0,0,23.1,14.433Zm0-2.828a6.442,6.442,0,0,1,1.688.219,6.675,6.675,0,0,1,1.5.636,6.55,6.55,0,0,1,2.28,2.28,6.675,6.675,0,0,1,.636,1.5,6.567,6.567,0,0,1,0,3.365,6.619,6.619,0,0,1-.636,1.513,6.55,6.55,0,0,1-2.28,2.28,6.068,6.068,0,0,1-1.5.636,6.154,6.154,0,0,1-1.688.23,6.052,6.052,0,0,1-2.456-.5A6.36,6.36,0,0,1,15.9,20.111a6.052,6.052,0,0,1-.5-2.456,6.154,6.154,0,0,1,.23-1.688,6.068,6.068,0,0,1,.636-1.5,6.55,6.55,0,0,1,2.28-2.28,6.62,6.62,0,0,1,1.513-.636Zm16.805,4.111a3.552,3.552,0,0,0-1.294-.954,3.918,3.918,0,0,0-1.579-.329,3.8,3.8,0,0,0-1.4.263,3.935,3.935,0,0,0-1.173.734,3.618,3.618,0,0,0-.822,1.107,3.336,3.336,0,0,0,0,2.8,3.451,3.451,0,0,0,.822,1.107,3.663,3.663,0,0,0,1.173.734,3.8,3.8,0,0,0,1.4.263,3.775,3.775,0,0,0,2.938-1.392,1.755,1.755,0,0,1,.581-.46,1.4,1.4,0,0,1,.592-.143,1.385,1.385,0,0,1,.537.11,1.708,1.708,0,0,1,.46.3,1.619,1.619,0,0,1,.318.449,1.229,1.229,0,0,1,.121.537,1.671,1.671,0,0,1-.384.987,5.564,5.564,0,0,1-1.03,1.041,6.529,6.529,0,0,1-1.25.767,6.218,6.218,0,0,1-1.4.471,6.754,6.754,0,0,1-1.48.164,6.272,6.272,0,0,1-1.7-.23,6.652,6.652,0,0,1-1.546-.625,6.327,6.327,0,0,1-1.337-.987,6.339,6.339,0,0,1-1.71-2.8,5.931,5.931,0,0,1-.241-1.7,6.044,6.044,0,0,1,.241-1.71,6.143,6.143,0,0,1,.68-1.513,6.4,6.4,0,0,1,1.03-1.283,6.54,6.54,0,0,1,1.337-.976,6.652,6.652,0,0,1,1.546-.625,6.647,6.647,0,0,1,3.113-.066,7.16,7.16,0,0,1,1.337.438,7.562,7.562,0,0,1,1.217.713,6.851,6.851,0,0,1,1.041.965,1.749,1.749,0,0,1,.318.5,1.527,1.527,0,0,1,.088.5,1.333,1.333,0,0,1-.11.537,1.529,1.529,0,0,1-.307.449,1.549,1.549,0,0,1-.449.3,1.306,1.306,0,0,1-.526.11,1.4,1.4,0,0,1-.592-.132Zm8.847-.745a.876.876,0,0,0-.406-.438,1.471,1.471,0,0,0-.647-.143,1.243,1.243,0,0,0-.373.055,1.051,1.051,0,0,0-.307.175.789.789,0,0,0-.307.625.437.437,0,0,0,.11.285,1.493,1.493,0,0,0,.263.263,1.922,1.922,0,0,0,.329.208q.164.088.285.143l1.184.515a9.012,9.012,0,0,1,1.118.592,4.835,4.835,0,0,1,.932.778,3.432,3.432,0,0,1,.625,1,3.315,3.315,0,0,1,.23,1.272,3.826,3.826,0,0,1-.318,1.557,3.947,3.947,0,0,1-2.127,2.1,4,4,0,0,1-1.557.307,4.149,4.149,0,0,1-1.359-.23,4.388,4.388,0,0,1-1.239-.625,3.86,3.86,0,0,1-.954-.965,3.174,3.174,0,0,1-.537-1.261q-.022-.121-.033-.219a1.786,1.786,0,0,1-.011-.2,1.4,1.4,0,0,1,.438-1.052,1.454,1.454,0,0,1,.46-.274,1.4,1.4,0,0,1,.515-.1,1.448,1.448,0,0,1,.844.285,1.516,1.516,0,0,1,.548.91.819.819,0,0,0,.186.373,1.076,1.076,0,0,0,.318.285,1.339,1.339,0,0,0,.406.175,1.377,1.377,0,0,0,.417.066,1.556,1.556,0,0,0,.449-.066,1.251,1.251,0,0,0,.395-.2.972.972,0,0,0,.274-.318.949.949,0,0,0,.1-.449.658.658,0,0,0-.132-.384,1.74,1.74,0,0,0-.318-.34,3.7,3.7,0,0,0-.395-.263,2.938,2.938,0,0,0-.373-.186l-1.195-.493a5.624,5.624,0,0,1-1.052-.57,4.158,4.158,0,0,1-.855-.778,3.276,3.276,0,0,1-.581-.954,2.964,2.964,0,0,1-.219-1.151,3.527,3.527,0,0,1,.307-1.469,3.884,3.884,0,0,1,2.039-2,3.812,3.812,0,0,1,1.469-.285,3.682,3.682,0,0,1,1.129.175,3.987,3.987,0,0,1,1.02.493,4.04,4.04,0,0,1,1.469,1.732,1.38,1.38,0,0,1,.132.559,1.184,1.184,0,0,1-.121.537,1.272,1.272,0,0,1-.34.417,1.589,1.589,0,0,1-1.02.373,1.341,1.341,0,0,1-.7-.2Z" transform="translate(200.574 11.879)" fill="#158bc2"/>
  </g>
</svg>
